<svg width="47" height="48" viewBox="0 0 47 48" fill="none" xmlns="http://www.w3.org/2000/svg">
<path d="M23.5 48C36.4787 48 47 37.2548 47 24C47 10.7452 36.4787 0 23.5 0C10.5213 0 0 10.7452 0 24C0 37.2548 10.5213 48 23.5 48Z" fill="#231F20"/>
<path d="M23.5 47C35.9264 47 46 36.9264 46 24.5C46 12.0736 35.9264 2 23.5 2C11.0736 2 1 12.0736 1 24.5C1 36.9264 11.0736 47 23.5 47Z" fill="white"/>
<path d="M23.5 46C35.3741 46 45 36.3741 45 24.5C45 12.6259 35.3741 3 23.5 3C11.6259 3 2 12.6259 2 24.5C2 36.3741 11.6259 46 23.5 46Z" fill="#231F20"/>
<path d="M28.3776 38.0014C24.6903 38.4707 22.8677 37.303 19.9871 34.9184C20.2231 36.3334 21.2405 37.4309 22.085 38.0478C22.8565 38.6141 24.4823 39.0187 25.5559 39.0187C26.6295 39.0187 27.6272 38.4145 28.3776 38.0014Z" fill="white"/>
<path d="M20.6799 40.4718C20.8668 40.4985 20.9848 40.1697 20.8274 40.0657C20.5478 39.8774 20.3005 39.5641 20.5492 38.8109C20.2302 38.8306 19.4405 38.4216 19.1187 37.0417C18.936 38.3781 19.7468 40.3355 20.6799 40.4718Z" fill="white"/>
<path d="M23.0912 39.6132C22.8284 38.8277 21.308 38.7181 21.1534 38.3218C21.0241 38.7729 20.8189 38.7939 20.781 39.5387C21.4513 38.9921 22.1103 39.876 22.3829 40.2652C22.6556 40.6545 23.3399 40.358 23.0912 39.6132Z" fill="white"/>
<path d="M24.5259 40.4703C24.377 40.223 24.0538 40.2286 23.687 39.3152C23.2837 39.8056 23.5142 40.3213 23.7615 40.5448C24.0102 40.7682 24.4613 40.6235 24.5259 40.4703Z" fill="white"/>
<path d="M22.0162 26.2778C18.0844 26.2778 17.4802 32.0546 17.4802 34.3114C17.4802 34.7231 17.4661 35.4834 17.4563 35.8038L16.4965 31.9914C16.2604 31.9914 16.1129 32.5366 16.1705 32.7671L18.8376 43.4326C18.936 43.7994 18.9964 44.0622 19.2479 44.0102C19.536 43.9497 19.3491 43.3624 19.2788 43.0504L18.1954 38.735C18.4441 38.2306 18.6577 37.5757 18.7687 36.9307C18.5214 36.9307 18.0001 36.8562 17.9256 36.5583C18.7196 36.533 18.839 36.3166 18.853 36.193C19.1467 33.4458 18.8123 30.0733 19.966 28.2732C21.1253 26.4633 23.5886 26.7472 24.5076 26.6474C24.0355 26.3495 22.7933 26.2778 22.0162 26.2778Z" fill="white"/>
<path d="M13.3671 41.1407C14.6712 41.4766 16.7734 40.7346 17.3917 39.7538C17.3074 39.3617 17.2329 39.1003 17.1233 38.631C17.001 39.1889 16.7453 39.7004 16.2731 40.1346C15.3415 39.5191 15.0815 40.8794 13.3671 41.1407Z" fill="white"/>
<path d="M20.4452 24.5072C18.1111 24.8796 17.4338 24.3105 16.6834 24.4117C15.5845 24.5606 15.0379 25.2941 15.2431 26.0009C15.2796 25.7227 15.8642 25.1199 16.3855 25.1944C16.1241 25.467 15.9583 25.6988 16.0497 25.977C16.0398 25.9461 16.2562 26.1359 16.571 25.8646C17.1626 25.3531 18.0437 25.2506 18.7322 25.2506C19.5599 25.2506 20.3749 25.1171 20.7065 24.8332C20.8274 24.732 20.5534 24.4903 20.4452 24.5072Z" fill="white"/>
<path d="M42.1402 14.11C40.7645 15.3255 40.3135 14.7297 39.2567 15.0655C39.2047 15.0824 39.2342 14.9348 39.178 14.9573C40.5537 13.1348 41.6006 14.3152 42.1402 14.11Z" fill="white"/>
<path d="M40.9136 16.1349C40.9262 15.4956 40.1618 14.6412 38.9884 15.0979C39.892 16.0169 40.454 15.9171 40.9136 16.1349Z" fill="white"/>
<path d="M31.2428 36.7171C31.3004 36.5709 31.4943 36.467 31.3004 36.3222C30.6175 35.8135 31.1768 35.5887 30.9533 35.4032C30.2816 34.9058 29.4624 35.6646 28.4563 34.2482C28.9411 34.4533 29.558 34.9044 30.1762 34.7091C29.5748 32.7811 28.4563 29.8526 28.2286 28.647C28.1513 28.2535 28.0572 27.6703 27.0988 27.6703C26.496 27.6703 26.1587 27.7828 25.8538 27.9331C25.9325 27.7266 26.6449 27.3205 27.1157 27.2629C24.8055 26.8216 20.8709 26.5771 20.2358 29.5281C20.0924 30.1913 20.9215 31.1385 23.1263 30.3614C23.4467 30.2462 23.8233 30.492 23.3343 30.9628C22.8438 31.4335 21.2068 32.5633 19.7762 31.5656C20.0952 32.0547 21.0929 32.3918 21.8855 32.3918C22.6752 32.3918 23.9863 32.2542 24.6003 30.5595C24.769 30.5595 25.7372 30.5216 26.4075 29.5168C26.1981 30.9333 25.7119 31.4195 25.2158 31.7891C24.8786 32.5184 24.1043 34.1259 21.8475 34.1259C21.2784 34.1259 20.9651 34.1076 20.4465 33.7633C21.5693 35.2079 26.6309 39.1664 30.7917 37.0052C30.7425 37.2286 30.2465 37.7247 29.7055 37.9369C28.6502 38.3514 27.9082 39.5627 24.6566 39.7383C24.7282 40.781 26.4018 40.5449 26.7798 40.4156C26.1461 40.3215 25.8159 40.2006 25.7737 40.0362C26.9653 40.1022 28.2581 39.9617 29.7477 39.29C29.5987 39.6259 29.513 39.862 29.1771 40.0109C31.1515 40.1711 31.8105 38.5425 32.277 38.3767C32.1773 37.9762 31.3594 36.8267 31.2428 36.7171Z" fill="white"/>
<path d="M22.2719 22.8476C22.0893 23.3155 21.1913 23.8537 21.3782 24.5985C21.3782 24.3751 22.4364 23.435 22.6823 22.96C23.1924 21.9693 22.9057 21.656 22.7188 20.7608C22.6991 21.5309 22.5783 22.0621 22.2719 22.8476Z" fill="white"/>
<path d="M15.7152 32.3104C15.895 32.5254 16.0075 32.9751 16.2492 32.9933C16.2 32.9385 16.3054 32.5086 16.1494 32.2978C16.0257 31.6514 16.0819 31.3548 16.162 31.3042C16.4599 31.1103 16.3602 31.8157 16.5766 31.9928C16.6314 32.0392 16.7073 32.094 16.8 32.035C16.7873 31.8678 16.7578 31.6373 16.7958 31.3084C16.6651 31.0105 16.5724 30.4007 16.5724 30.3726C16.3208 29.9764 16.0749 29.6405 15.6899 29.3538C15.5395 29.1669 15.3835 28.869 15.1868 28.581C14.7821 27.9922 14.0486 26.2272 13.405 24.8093C12.9708 23.8496 12.486 23.3676 12.6349 23.095C12.8415 22.7409 12.9567 22.516 13.0551 22.2575C12.8837 21.5984 12.3525 19.5398 12.0616 18.3833C11.1763 19.9796 11.2213 22.0805 11.0091 22.8238C10.7829 23.6149 11.0653 23.6698 11.1201 24.0379C11.3028 25.2183 12.3342 26.8876 13.0129 27.5945C13.4008 27.9978 14.5643 29.2329 14.5643 29.7388C14.6163 29.944 14.6908 30.3164 14.6725 30.745C14.7343 30.9361 14.8383 30.9066 14.9521 31.0246C15.0069 31.0823 15.021 31.2818 15.1447 31.3422C15.2093 31.3732 15.2416 31.3844 15.4173 31.5151C15.5072 31.5825 15.6013 32.1741 15.7152 32.3104Z" fill="white"/>
<path d="M24.5639 25.0819C24.2407 25.3306 23.1896 24.7151 22.4772 24.8022C21.9938 24.8767 21.7535 25.1817 21.5033 25.2182C20.056 24.933 18.4315 25.8955 17.6362 27.0956C17.5097 27.2853 17.3299 27.4301 17.3046 27.69C17.2807 27.9514 17.4844 28.0258 17.3355 28.3982C17.0277 29.4437 17.0376 30.2952 17.1556 31.0189C17.4296 30.0493 18.2489 26.7218 21.3783 26.0881C20.5956 25.9391 19.4658 26.2749 18.6957 26.5981C19.5655 25.6032 21.0045 25.6286 21.9558 25.6778C22.0064 25.6749 21.7633 25.4796 21.6762 25.2927C21.8757 25.2927 22.0935 25.5232 22.7568 25.4922C23.4847 25.4571 23.7489 25.422 24.1536 25.3615C23.5479 25.6651 23.0786 25.8759 22.2228 25.9012C24.6328 26.6473 25.0796 25.7522 26.3457 25.5541C26.1729 25.2309 25.4028 25.0075 24.5639 25.0819Z" fill="white"/>
<path d="M14.2552 31.6836C13.7367 29.2989 11.9844 27.7448 10.6382 27.3878C10.5918 27.3752 9.94965 29.5814 10.0241 31.6779C11.4392 31.5754 13.1999 31.6119 14.2552 31.6836Z" fill="white"/>
<path d="M10.3121 34.3843C10.7463 36.6074 11.3435 37.9676 11.8002 38.8023C12.9019 38.2529 14.2551 36.9545 14.4757 34.2565C12.9328 34.1848 11.4236 34.3028 10.3121 34.3843Z" fill="white"/>
<path d="M7.98367 27.7195C6.85247 28.3673 5.70441 29.8652 5.57935 32.3539C6.06414 32.2288 6.7541 32.0616 7.40612 31.9632C7.38083 31.0442 7.40613 29.5435 7.98367 27.7195Z" fill="white"/>
<path d="M5.90259 34.9296C6.58974 37.3803 8.18185 38.4848 9.11913 38.8572C8.35047 37.4225 7.94718 36.065 7.68581 34.6584C6.89889 34.7652 6.32556 34.8537 5.90259 34.9296Z" fill="white"/>
<path d="M17.8006 26.0023C16.0118 26.2384 16.1031 27.6689 16.2731 27.9893C16.6371 27.1771 16.8324 26.8469 17.8006 26.0023Z" fill="white"/>
<path d="M14.3761 20.7819C14.7527 20.5191 14.7527 19.877 14.695 19.5777C14.414 20.0105 14.2833 20.425 14.3761 20.7819Z" fill="white"/>
<path d="M39.4661 13.7743C38.2548 13.8305 37.7152 14.2084 37.5227 15.4844C39.497 14.7396 38.994 13.9724 39.4661 13.7743Z" fill="white"/>
<path d="M21.0058 18.476C20.8878 19.1899 20.285 19.1969 20.0377 19.5187C19.9435 19.3894 20.0742 18.9918 20.1487 18.8231C19.4601 19.2897 19.0315 20.0189 19.0315 20.6119C18.8446 20.3014 18.5214 19.2461 17.6024 18.9229C17.3242 18.8245 17.4703 19.1056 17.6024 19.395C17.7345 19.6845 17.9846 20.3885 17.9762 21.0602C17.9678 21.5155 17.7078 21.9469 17.5603 22.0101C17.7514 20.5374 16.8829 18.8231 16.6834 18.8231C16.3096 18.8231 15.7644 21.0841 16.5457 22.7619C14.9452 20.8115 15.8895 19.114 15.8895 18.6742C15.8895 18.1655 15.8333 17.9154 15.4173 17.557C15.6154 19.0227 14.9831 19.5805 14.754 20.7904C14.6402 21.3918 14.6416 21.8654 14.8398 22.1436C15.0337 22.4247 15.3962 22.7549 15.5283 22.9221C15.6604 23.0908 16.1888 23.8158 16.6089 23.8158C16.9574 23.8158 16.956 23.3099 16.7902 23.13C16.9757 23.1047 17.1991 23.1455 17.3298 23.2832C17.6024 23.5685 17.4141 23.8229 17.5167 23.8158C18.0437 23.7793 18.7519 21.8977 18.9163 21.3131C19.4784 22.8111 18.3992 24.08 18.5608 24.0758C19.0315 24.0646 19.9013 22.9839 20.1782 22.561C20.1908 22.6397 20.1936 22.7169 20.1683 22.8111C20.0812 23.1343 20.0081 23.5559 20.1487 23.5559C20.5997 23.5559 20.8386 22.1323 20.8822 21.5815C20.9258 21.0307 21.6761 20.737 21.6227 19.832C21.6031 19.5074 21.3038 18.8048 21.4148 18.4915C21.7422 18.677 21.9965 18.809 22.2143 18.9285C22.4996 19.083 23.2177 19.3234 23.4861 19.395C24.2898 19.6058 25.4112 19.9065 25.7021 19.9866C26.0351 20.0779 26.1672 20.1707 26.4075 20.1707C27.6511 20.1707 29.4863 19.1814 29.6676 19.0409C29.8643 18.8891 30.3772 18.6221 30.7159 18.4156C31.0405 18.1837 31.6307 17.8296 31.9834 17.7186C32.1661 17.6526 32.3052 17.6877 32.4274 17.7495C32.8293 17.949 33.0499 18.0502 33.5081 18.0994C33.1567 18.5603 32.5862 19.2179 32.2672 19.8756C32.3206 19.943 32.4766 20.0134 32.5342 20.0527C33.0387 19.1969 33.5685 18.469 34.0926 17.9013C34.1278 17.8634 33.879 17.8184 33.9156 17.6498C33.9423 17.6231 34.4285 17.9013 34.7545 17.7987C34.7755 17.7791 34.9119 17.7987 34.8936 17.6216C35.0524 17.5668 35.0959 17.4291 35.0805 17.3982C34.6884 17.3336 34.3877 17.2746 34.257 17.283C34.2177 17.2914 34.087 17.356 34.1109 17.4502C34.0364 17.4558 33.9268 17.4868 33.9198 17.5612C33.1933 17.8591 32.4359 17.023 31.8358 17.2029C32.0382 16.8123 33.0176 17.231 33.4701 17.238C34.0926 17.2492 34.1952 16.9977 35.0341 17.2591C35.5456 17.3701 35.6552 17.1424 35.2758 16.9893C34.9821 16.8698 34.4805 16.7757 34.2725 16.6675C34.6421 16.6632 35.006 16.607 35.4894 16.8024C35.5878 16.7996 35.5639 16.7546 35.5835 16.7279C35.6833 16.5916 37.2136 15.5729 39.2582 15.0656L39.2905 14.8646C38.3406 15.0332 37.437 15.3311 35.429 16.4693C35.377 16.444 35.214 16.3892 34.68 16.2895C33.8228 16.3892 32.1014 16.3865 31.6616 16.5692C29.4638 17.4826 27.7874 17.6132 26.8178 18.171C26.2656 18.49 25.5587 17.8661 25.3283 17.7059C24.7634 17.3153 24.5765 17.2605 24.11 17.0357C23.9301 16.9598 23.0771 16.4665 22.9043 16.4328C22.012 16.548 21.1731 17.7678 21.0058 18.476Z" fill="white"/>
<path d="M15.9204 17.5064C16.408 18.0699 17.3354 18.6362 18.3415 18.3004C16.8886 17.9842 15.7644 14.9981 14.1259 14.8983C13.7774 14.873 13.2561 14.9967 12.7347 15.6923C14.5967 14.9728 15.4637 16.9795 15.9204 17.5064Z" fill="white"/>
<path d="M37.5734 13.8303C37.2994 13.8429 36.008 14.2027 36.3565 16.0168C37.7097 15.1217 37.3991 14.1029 37.5734 13.8303Z" fill="white"/>
<path d="M35.8899 14.7255C34.7348 15.3396 35.0481 15.9691 35.0271 16.4019L35.3123 16.5143C36.1695 15.6572 35.7789 14.9363 35.8899 14.7255Z" fill="white"/>
<path d="M33.8214 41.9488C33.1357 41.7886 32.6818 41.9811 32.0578 41.5511C31.7318 41.3262 30.6639 40.7501 29.9711 40.5829C28.639 41.0762 28.1106 40.9061 27.4867 40.8878C26.718 41.3038 25.8426 41.1661 25.081 40.8878C24.3629 41.4162 23.7502 41.1759 23.4383 40.93C22.2213 41.6509 22.3984 40.6138 21.5764 40.5955C20.3707 41.3656 19.3702 40.8541 18.891 40.5548C19.002 41.0241 19.1538 41.5595 19.2816 42.1062L33.9661 42.1146C33.9661 42.1146 34.1938 42.0359 33.8214 41.9488Z" fill="white"/>
<path d="M33.4547 42.7061H19.4334L19.6737 43.6869C19.7875 44.2504 19.5711 44.5638 19.1426 44.5497C18.7477 44.5385 18.5636 44.3586 18.4259 43.8331L18.1463 42.7061L13.6158 42.7075C14.1049 42.9983 17.972 45.1877 23.5015 45.2144C28.5491 45.2396 32.3867 43.3131 33.4547 42.7061Z" fill="white"/>
<path d="M10.9852 17.6049C7.88953 21.9007 9.32988 24.4961 9.6039 25.0455C9.45494 24.4005 9.18233 23.1457 9.6039 22.0524C9.6039 22.2421 9.67837 22.8477 10.1266 23.2693C10.0269 22.1774 9.55471 21.2458 11.4054 17.4265C11.5361 17.144 11.2424 17.248 10.9852 17.6049Z" fill="white"/>
<path d="M16.3405 35.4046C16.2365 34.9465 15.8894 33.5441 15.7152 32.8795C15.4679 32.4944 15.1882 32.2443 14.9226 32.0967C14.9536 32.233 14.9817 32.3721 15.007 32.5155C15.1208 33.1872 15.1545 33.9291 15.0814 34.6809C14.8496 37.067 13.62 39.5219 11.0133 39.9126C8.18886 40.3341 5.13954 37.0037 5.2084 32.8696C5.27585 28.7355 7.742 26.8328 9.62359 26.8145C10.4892 26.8061 11.3422 27.007 12.2879 27.6787C11.6907 26.6473 11.4855 26.0908 11.3141 25.5105C10.8335 25.3292 10.1309 25.235 9.65169 25.2589C5.30677 25.4795 3.39427 30.8952 4.4257 35.1544C4.81775 36.7747 5.59905 38.4624 6.86655 39.7074C7.50452 40.3018 8.52471 41.1843 9.77254 41.3838C13.0987 42.144 15.8838 39.1692 16.3405 35.4046Z" fill="white"/>
<path d="M10.908 11.6818C10.9699 11.856 14.7148 26.9312 14.8019 27.2811C14.8679 27.5467 15.007 27.7954 15.1518 27.7687C15.2544 27.7476 15.4089 27.5762 15.3106 27.2192C15.3106 27.2192 13.7452 21.0714 13.6903 20.81C14.1555 20.0652 14.2609 18.9721 14.6951 18.41C14.9579 18.7697 14.9902 18.3916 14.9972 18.1092C15.0436 16.2276 14.0135 15.9297 13.7957 15.9171C12.8824 15.8608 12.7236 16.9064 12.7236 16.9064L11.4013 11.5764C11.6528 11.5384 11.8397 11.6508 12.0139 11.8181C11.9619 11.2644 11.383 9.36878 10.3305 8.8095C9.78104 10.5604 10.2504 11.7562 10.3993 12.2537C10.4513 12.033 10.5848 11.7562 10.908 11.6818Z" fill="white"/>
<path d="M17.615 40.5871C16.4726 41.381 14.5418 41.8307 13.4612 41.8672C12.902 41.8813 12.8865 42.0443 12.9146 42.116C13.3544 42.123 18.0057 42.1089 18.0057 42.1089C18.0057 42.1089 17.7148 40.9594 17.615 40.5871Z" fill="white"/>
<path d="M37.7335 15.4702C39.476 15.4238 39.6994 16.2993 39.6713 16.6998C39.5125 16.5508 38.1804 16.6632 37.7335 15.4702Z" fill="white"/>
<path d="M36.5166 16.066C37.2248 17.0975 38.0708 17.0005 38.5162 17.1593C37.9949 15.8426 36.8131 15.9986 36.5166 16.066Z" fill="white"/>
<path d="M36.5293 16.7869C36.2665 16.6576 35.7044 16.5101 35.4121 16.6759C35.4121 16.6759 35.5358 17.8422 37.3485 17.6188C37.3752 17.682 36.8005 16.9232 36.5293 16.7869Z" fill="white"/>
<path d="M33.5488 41.4021C33.8256 41.4035 34.3441 41.4765 34.8402 41.0788C35.1943 41.1912 35.3713 40.8989 35.436 40.7317C35.1142 40.5828 34.1221 40.0249 33.6176 39.5767C33.1862 39.1931 32.9684 38.9092 32.5806 38.77C32.0592 39.0202 31.2597 40.1627 30.8662 40.2344C31.7852 40.6081 32.4387 41.3993 33.5488 41.4021Z" fill="white"/>
<path d="M33.9338 32.0054C33.872 32.2583 33.4827 32.382 33.064 32.2794C32.6466 32.1768 32.3586 31.8887 32.4204 31.6358C32.6804 31.6625 32.9122 31.5627 33.2888 31.3618C33.4097 31.6302 33.7076 31.8114 33.9338 32.0054Z" fill="white"/>
<path d="M34.2219 33.6707C34.5381 33.7831 34.8754 33.7578 35.0805 33.6454C35.1381 33.8407 35.0341 34.2032 34.7152 34.459C34.3512 34.7527 33.865 34.8089 33.7217 34.6304C34.0744 34.4646 34.25 34.0613 34.2219 33.6707Z" fill="white"/>
<path d="M32.9291 35.0617C33.2944 35.2345 33.5165 35.538 33.4518 35.8204C33.3717 36.1746 32.8715 36.3615 32.3347 36.2392C31.7979 36.117 31.4283 35.7319 31.5084 35.3778C31.5478 35.2021 31.6911 35.0687 31.8892 34.9914C32.0143 35.0884 32.5342 35.1769 32.9291 35.0617Z" fill="white"/>
<path d="M32.5693 33.738C32.5525 33.738 32.5356 33.7394 32.5173 33.7408C32.0213 33.5553 31.9046 33.2981 31.9299 32.9735C31.6714 32.9735 31.1304 33.0171 31.1781 33.4302C31.2091 33.6888 31.507 33.9207 31.8526 33.9867C31.7613 34.0738 31.7093 34.1764 31.7107 34.2889C31.7149 34.5868 32.1056 34.8214 32.5834 34.8158C33.0625 34.8088 33.4476 34.5614 33.4434 34.2649C33.4391 33.967 33.0485 33.731 32.5693 33.738Z" fill="white"/>
<path d="M35.6805 36.5429C35.4781 36.8717 34.9399 36.9096 34.4804 36.6257C34.0195 36.3433 33.8116 35.8473 34.0139 35.5185C34.2163 35.1882 34.753 35.1503 35.214 35.4342C35.6749 35.7166 35.8828 36.2141 35.6805 36.5429Z" fill="white"/>
<path d="M38.5162 39.3617C38.5162 40.0657 37.8698 40.6376 37.073 40.6376C36.2749 40.6376 35.6285 40.0657 35.6285 39.3617C35.6285 38.6577 36.2749 38.0857 37.073 38.0857C37.8698 38.0857 38.5162 38.6577 38.5162 39.3617Z" fill="white"/>
<path d="M39.2061 34.2216C39.431 34.3185 39.5926 34.4857 39.6333 34.6965C39.712 35.1069 39.3129 35.5284 38.741 35.638C38.1691 35.749 37.6421 35.5074 37.5634 35.0984C37.5241 34.8947 37.6014 34.691 37.7573 34.5223C37.9386 34.6488 38.8605 34.7049 39.2061 34.2216Z" fill="white"/>
<path d="M39.7823 36.9896C39.1837 36.97 38.7129 36.5287 38.7284 36.0032C39.0628 36.0495 39.7837 35.701 39.8413 35.0842C40.4385 35.1024 40.9107 35.5437 40.8938 36.0707C40.8784 36.5962 40.3809 37.0079 39.7823 36.9896Z" fill="white"/>
<path d="M36.1218 37.0501C37.5101 37.1724 37.8656 36.5695 37.9893 36.0075C38.0624 36.0398 38.1298 36.0777 38.193 36.1199C38.5134 36.3321 38.7059 36.6539 38.6736 36.9953C38.6216 37.5476 38.0033 37.9397 37.2895 37.8722C36.7077 37.8174 36.2454 37.4745 36.1218 37.0501Z" fill="white"/>
<path d="M33.3549 38.1307C33.4462 37.9171 33.6387 37.7682 33.8832 37.6951C33.8959 37.9677 34.2275 38.9204 35.6566 38.6801C35.6103 38.7855 35.6018 39.037 35.7437 39.1494C35.5414 39.6202 34.8458 39.7762 34.1854 39.4952C33.5249 39.2141 33.1539 38.6028 33.3549 38.1307Z" fill="white"/>
<path d="M33.9479 37.3635C33.8467 37.6853 33.3464 37.8146 32.8307 37.653C32.3136 37.4914 31.9749 37.0993 32.0761 36.7789C32.2391 36.8562 32.686 36.9504 33.1932 36.4895C33.7104 36.6511 34.049 37.0417 33.9479 37.3635Z" fill="white"/>
<path d="M36.2088 38.1856C36.0247 38.2404 35.8182 38.2726 35.599 38.2726C34.8374 38.2726 34.2205 37.8975 34.2205 37.4338C34.3624 37.3972 34.9905 37.5757 35.71 36.9054C35.6481 37.3776 35.835 37.9186 36.2088 38.1856Z" fill="white"/>
<path d="M37.2009 31.6118C36.5419 32.025 36.0458 32.0994 35.8505 31.9491C36.4589 31.7889 36.8861 31.4081 36.8046 31.099C36.7358 30.839 36.3269 30.7126 35.835 30.7758C35.7929 31.0695 35.6847 31.4531 34.6181 31.4615C34.5872 31.5374 34.5788 31.6104 34.597 31.6821C34.656 31.9041 34.9624 32.0278 35.3558 32.0208C35.1633 32.4845 34.642 32.6714 34.0855 32.5983C34.0687 32.9637 34.531 33.2813 35.1184 33.3094C35.7057 33.3361 36.1948 33.062 36.2116 32.6953C36.213 32.6826 36.2116 32.67 36.2116 32.656C36.3226 32.6855 36.4421 32.7065 36.5685 32.7135C37.1644 32.7459 37.6618 32.4999 37.6815 32.1613C37.6927 31.9407 37.5002 31.7369 37.2009 31.6118Z" fill="white"/>
<path d="M32.1084 32.1446C32.1084 31.8438 31.6081 31.5993 30.9927 31.5993C30.9688 31.5993 30.9308 31.5965 30.8929 31.5937C30.7987 30.2798 30.7032 28.8451 30.7172 28.0132C30.7257 27.5664 30.6427 27.0942 30.0441 26.8722C29.4989 26.6698 27.5288 25.9152 26.9077 25.7733C26.1348 25.7803 25.4575 26.2216 24.8561 26.6474C25.0331 26.6418 25.0809 26.6164 25.2369 26.6206C26.0772 26.6445 26.333 26.6094 27.1157 26.8328C27.6243 26.9789 28.1007 27.2417 28.2286 27.4665C28.3972 27.7673 28.9902 28.2577 29.2305 28.2577C29.4708 28.2577 29.8165 28.0301 30.2647 27.7097C30.1523 28.3982 29.8137 28.6961 29.5748 29.0067C29.3345 29.3172 29.2024 30.0002 29.3767 30.8208C29.5256 30.447 29.5354 29.6559 30.1706 29.3046C29.8825 29.8316 29.8727 31.321 29.8727 31.9126C29.8727 32.5042 30.3195 33.3783 31.0404 34.7695C31.1093 34.4702 31.039 33.8448 30.9674 32.6883C30.9758 32.6883 30.9842 32.6898 30.9927 32.6898C31.6081 32.6898 32.1084 32.4453 32.1084 32.1446Z" fill="white"/>
<path d="M37.1293 35.1053C36.9086 35.4018 36.7035 35.9386 35.9208 36.0875C36.1231 36.4135 36.6641 36.5035 37.1827 36.2829C37.2993 36.2323 37.4047 36.1705 37.4988 36.1002C37.1995 35.6899 37.1433 35.4468 37.1293 35.1053Z" fill="white"/>
<path d="M38.7185 32.7376C38.1719 32.5043 37.6309 32.5479 37.5086 32.8331C37.4567 32.9568 37.5381 33.2421 37.7152 33.3924C37.4735 33.3826 37.3246 33.3447 37.0913 33.0187C36.851 33.1325 36.6037 33.072 36.4716 33.0579C36.4182 33.2195 36.4477 33.3952 36.5419 33.5568C36.265 33.4515 35.9011 33.4992 35.5863 33.71C35.124 34.0178 34.9441 34.5573 35.183 34.9157C35.4219 35.2726 35.9896 35.3133 36.4505 35.0042C36.8608 34.7316 37.0477 34.2763 36.9184 33.9278C37.0028 33.9784 37.0969 34.0233 37.1981 34.057C37.6745 34.2158 38.1522 34.0964 38.3307 33.7915C38.8591 33.9995 39.3705 33.9517 39.4886 33.6762C39.6094 33.391 39.2652 32.9709 38.7185 32.7376Z" fill="white"/>
<path d="M15.9527 11.7619C14.5616 12.7806 15.5536 14.0046 14.4112 14.613C15.7405 14.5709 15.3822 12.6556 15.9527 11.7619ZM20.5913 10.337C20.6279 10.3244 20.5534 10.0602 20.1065 10.0855C20.6756 9.77771 21.0874 10.0952 21.0761 10.15C21.048 10.2906 20.8935 10.3552 20.8766 10.4634C20.871 10.5084 20.9764 10.5379 21.0017 10.5814C20.9483 10.58 20.8555 10.6236 20.8091 10.625C20.7895 10.6686 20.7403 10.826 20.6939 10.8302C20.4143 10.8217 20.2499 10.5224 20.07 10.4676C20.1107 10.4845 20.2878 10.3693 20.5913 10.337ZM19.9997 8.95006C20.559 8.76458 20.5211 8.44697 20.3103 8.04367C21.2855 8.52145 21.1548 9.06248 19.9997 8.95006ZM22.0485 15.7569C21.3136 15.2215 21.2982 14.6721 20.944 14.8492C21.3909 15.8187 21.3038 16.5143 19.8859 17.2267C19.789 16.9667 20.1487 16.8178 20.4339 16.5382C20.7557 16.2248 20.8668 15.7597 20.6827 15.0233C20.6447 14.873 20.3356 14.1043 19.64 14.117C20.0363 14.6875 20.4452 15.3016 20.0756 16.2726C20.0742 15.452 19.9 15.1906 19.3407 14.5274C19.1791 14.7283 18.7884 14.9742 18.7519 15.4337C18.2798 15.1849 19.3969 13.9385 19.1636 13.3835C18.8475 13.2163 18.6985 12.8383 18.6549 12.4645C18.9711 12.7919 19.484 13.0785 20.1051 13.1727C20.3904 13.2162 20.6827 13.1854 20.7389 12.9872C20.7951 12.7877 20.6953 12.7483 20.708 12.6626C20.715 12.6148 20.6981 12.5024 20.8836 12.508C20.9454 12.3366 20.8752 12.2846 20.7824 12.2171C20.9707 12.2171 21.0326 12.0977 21.0452 12.0555C21.0087 11.9895 20.9651 11.9445 21.0059 11.8475C21.0803 11.6635 21.4696 11.7759 21.4991 11.5778C21.516 11.4654 21.4401 11.3698 21.3881 11.2503C21.3038 11.0592 21.301 11.0621 21.145 10.6827C21.0677 10.4915 21.1689 10.3103 21.2012 10.0208C21.2377 9.68635 21.0803 9.24794 21.0803 9.24794C21.5778 8.92333 21.5244 8.43429 21.3122 8.35981C20.7909 8.21086 19.9997 7.21742 18.9753 7.14294C18.1926 7.08673 17.1682 7.08675 16.7017 7.68396C16.3602 8.12099 15.6253 8.79261 15.4918 9.50927C15.3443 10.292 15.5297 11.1168 16.0525 11.4892C15.8782 10.8428 15.8684 10.4789 15.8825 10.1051C15.8979 9.70601 16.0876 8.14904 17.5504 7.47032C18.3598 7.25532 19.4039 7.27358 19.7384 7.83286C19.1243 7.64596 18.454 7.7205 17.913 7.94393C17.3734 8.16736 16.7579 8.72659 16.9322 9.65825C16.5092 9.67089 16.4389 9.22822 16.4347 9.22401C16.3139 9.53596 16.1438 10.5295 16.904 11.0438C17.0797 11.1633 17.3172 11.0424 17.2385 10.9145C16.9265 10.4072 17.1696 9.99412 17.2792 9.95337C17.5533 9.84939 17.816 9.57816 17.8568 9.22967C18.0816 9.65826 17.9692 9.95617 17.7078 10.2175C18.5088 10.0306 18.0999 9.68352 19.1426 9.53457C18.4976 9.90695 18.7182 10.3974 18.0338 10.618C19.217 11.0466 19.0217 9.165 20.2976 9.31115C19.1889 9.42497 19.3098 12.3029 16.8085 12.8129C16.46 14.3713 15.8515 14.4767 14.9578 14.8618C16.7762 15.3957 17.528 17.7565 19.4658 17.408C19.2676 17.7565 18.9936 17.7551 18.7449 17.7551C18.721 18.2526 18.7884 18.6559 19.1608 18.6376C20.8569 18.2652 21.2658 16.4201 22.8565 16.1405C22.7947 15.9423 22.3226 15.9803 22.0485 15.7569Z" fill="white"/>
<path d="M8.53462 27.4609C9.10654 27.2544 9.76137 27.2193 10.1633 27.2994C8.61753 32.6462 10.2251 37.0361 11.3465 38.9556C10.5919 39.1917 9.81055 39.0793 9.65738 39.009C8.17629 36.0623 7.14627 31.6864 8.53462 27.4609Z" fill="white"/>
<path d="M5.58081 32.8443C5.6061 33.3909 5.70588 34.1244 5.77895 34.4589C7.74203 34.0991 10.2194 33.8378 14.5053 33.7535C14.5475 33.3165 14.4252 32.3413 14.355 32.0996C11.7286 31.8635 7.15465 32.2457 5.58081 32.8443Z" fill="white"/>
<path d="M41.6555 37.3846C41.2929 37.882 40.6086 38.6858 40.1378 39.1552C39.5294 39.0048 39.1036 38.6492 39.1036 38.2347C39.1036 37.6853 39.8568 37.2398 40.787 37.2412C41.1046 37.2412 41.4025 37.2932 41.6555 37.3846Z" fill="white"/>
<path d="M35.5413 30.662C35.5315 30.8938 35.065 31.061 34.4987 31.0357C33.9338 31.0104 33.4841 30.8024 33.4939 30.572C33.5038 30.3401 33.9703 30.1729 34.5366 30.1982C35.1015 30.2221 35.5512 30.4301 35.5413 30.662Z" fill="white"/>
<path d="M33.879 30.0606C33.8087 29.8892 33.2495 29.9581 32.6312 30.2125C32.0143 30.4682 31.5702 30.8139 31.6405 30.9839C31.7108 31.1554 32.27 31.0879 32.8883 30.8321C33.5052 30.5778 33.9493 30.2321 33.879 30.0606Z" fill="white"/>
<path d="M33.5853 32.6209C33.449 32.8316 33.4364 33.0677 33.6781 33.3544C33.5123 33.4387 33.2888 33.4907 33.0443 33.4907C32.5272 33.4907 32.1071 33.2589 32.1071 32.975C32.1071 32.6897 32.5272 32.4593 33.0443 32.4593C33.1385 32.5338 33.2621 32.6335 33.5853 32.6209Z" fill="white"/>
</svg>
