<svg width="87" height="21" viewBox="0 0 87 21" fill="none" xmlns="http://www.w3.org/2000/svg">
<path d="M82.2209 0.197327H85.3565V6.46849H82.2209V0.197327ZM76.7939 3.33291L76.613 3.39321C76.613 3.39321 77.6984 4.29771 77.6984 4.358C77.7587 4.4183 77.819 4.4183 77.7587 4.5992C77.6984 4.7801 77.6381 4.961 77.6381 4.961C77.6381 4.961 78.6029 4.7801 78.7235 4.7198C78.8441 4.7198 78.9044 4.7198 78.9044 4.8404C78.9044 4.961 78.8441 5.9861 78.8441 5.9861H79.1456C79.1456 5.9861 79.0853 4.9007 79.0853 4.8404C79.0853 4.7198 79.1456 4.7198 79.2662 4.7198C79.3868 4.7198 80.3516 4.961 80.3516 4.961C80.3516 4.961 80.2913 4.7198 80.231 4.5992C80.1707 4.4183 80.231 4.4183 80.2913 4.358C80.3516 4.29771 81.3767 3.39321 81.3767 3.39321L81.1958 3.33291C81.0752 3.27261 81.1355 3.21231 81.1355 3.15201C81.1355 3.09171 81.3164 2.48871 81.3164 2.48871C81.3164 2.48871 80.834 2.60931 80.7737 2.60931C80.7134 2.60931 80.6531 2.60931 80.6531 2.54901C80.6531 2.48871 80.5325 2.24752 80.5325 2.24752C80.5325 2.24752 79.9898 2.85051 79.9295 2.91081C79.8089 3.03141 79.6883 2.91081 79.7486 2.79021C79.7486 2.66961 80.0501 1.40332 80.0501 1.40332C80.0501 1.40332 79.7486 1.58422 79.628 1.64452C79.5074 1.70482 79.4471 1.70482 79.4471 1.58422C79.3868 1.46362 79.025 0.800323 79.025 0.740024C79.025 0.740024 78.6632 1.46362 78.6029 1.58422C78.5426 1.70482 78.4823 1.70482 78.422 1.64452C78.3014 1.58422 77.9999 1.40332 77.9999 1.40332C77.9999 1.40332 78.3014 2.66961 78.3014 2.79021C78.3014 2.91081 78.2411 2.97111 78.1205 2.91081L77.5175 2.24752C77.5175 2.24752 77.4572 2.42841 77.3969 2.48871C77.3969 2.54901 77.3366 2.60931 77.2763 2.54901C77.1557 2.54901 76.6733 2.42841 76.6733 2.42841C76.6733 2.42841 76.8542 3.03141 76.9145 3.09171C76.9145 3.15201 76.9145 3.27261 76.7939 3.33291ZM72.7538 0.197327H75.8894V6.46849H72.7538V0.197327Z" fill="white"/>
<path d="M86.0197 19.0108C85.7785 19.5535 85.2961 19.7344 84.9946 19.7344C84.6328 19.7344 83.5474 19.6741 83.5474 16.84C83.5474 16.84 83.5474 11.1115 83.5474 10.7497C83.5474 8.88043 82.1002 7.37293 78.3616 7.37293C74.3215 7.37293 74.2612 9.36282 74.2612 9.84522C74.2009 10.3879 74.5024 10.9909 75.5275 10.9909C76.432 10.9909 76.6732 9.96582 76.7938 9.60402C76.9144 9.18192 76.9747 7.97593 78.6028 7.97593C79.9897 7.97593 80.8339 9.18192 80.8942 10.9306C80.8942 11.2321 80.8942 11.413 80.8942 11.5939C80.8942 11.7145 80.8942 11.7748 80.8942 11.8954V11.9557C80.7736 12.5587 80.4721 12.8602 79.9294 13.1014C79.2058 13.4632 77.0953 13.7647 76.8541 13.825C76.0099 14.0059 73.6582 14.6089 73.7185 17.0812C73.7788 19.4932 76.1908 20.3374 77.8792 20.2771C79.5073 20.2168 80.4721 19.5535 80.8942 19.1917C81.1354 19.0108 81.1354 19.0108 81.3163 19.252C81.5575 19.4932 82.3414 20.2771 84.2107 20.2771C86.1403 20.2771 86.3815 19.3726 86.5021 19.0711C86.5624 18.8902 86.1403 18.7093 86.0197 19.0108ZM78.4822 19.6741C76.7938 19.6741 76.3717 18.2872 76.3717 17.5636C76.3717 16.9003 76.7335 15.5134 78.4219 14.5486C78.4219 14.5486 79.2058 14.0662 80.7133 13.4632C80.7736 13.4632 80.8339 13.4632 80.8339 13.4632C80.8339 13.4632 80.8942 13.5235 80.8942 13.5838V13.6441V13.7044V16.237C80.8942 18.2269 79.9294 19.6741 78.4822 19.6741ZM72.9346 19.6138C72.6935 19.5535 71.186 19.7344 71.186 15.1516C71.186 10.5688 71.186 0.739967 71.186 0.739967C71.186 0.559068 71.186 0.0766708 70.6433 0.0766708C70.1006 0.0766708 66.4826 0.25757 66.2414 0.31787C66.0002 0.31787 65.8193 0.619368 66.2414 0.619368C66.6635 0.679668 68.5931 0.800267 68.5931 3.99615C68.5931 5.56394 68.5931 7.13173 68.5931 8.27743C68.5931 8.33773 68.5931 8.39803 68.5931 8.39803C68.5931 8.51863 68.5931 8.57893 68.5328 8.63923C68.5328 8.63923 68.5328 8.63923 68.5328 8.69953C68.4725 8.75983 68.4122 8.69953 68.2313 8.57893C67.9298 8.33773 66.5429 7.49353 64.7942 7.49353C61.9601 7.49353 58.4627 9.54372 58.4627 13.7647C58.4627 18.2872 61.6586 20.458 64.9751 20.458C66.6032 20.458 67.7489 19.7344 68.171 19.4932C68.6534 19.1917 68.5931 19.252 68.6534 19.6741C68.7137 19.9756 68.6534 20.5786 69.4976 20.5183C70.4021 20.3977 72.5728 20.1565 72.9949 20.0962C73.417 19.9153 73.2964 19.6741 72.9346 19.6138ZM65.4575 19.7947C62.8043 19.7947 61.4174 16.6591 61.4174 13.6441C61.4174 10.3276 63.2867 8.09653 65.2766 8.21713C67.8695 8.39803 68.5328 10.4482 68.5931 14.1265C68.5931 14.3677 68.5931 14.6089 68.5931 14.9104C68.5328 18.5284 67.0253 19.7947 65.4575 19.7947ZM58.4024 19.0108C58.1612 19.5535 57.6788 19.7344 57.3773 19.7344C57.0155 19.7344 55.9301 19.6741 55.9301 16.84C55.9301 16.84 55.9301 11.1115 55.9301 10.7497C55.9301 8.88043 54.4829 7.37293 50.7444 7.37293C46.7043 7.37293 46.644 9.36282 46.644 9.84522C46.5837 10.3879 46.8852 10.9909 47.9103 10.9909C48.8148 10.9909 49.056 9.96582 49.1766 9.60402C49.2972 9.18192 49.3575 7.97593 50.9856 7.97593C52.3725 7.97593 53.277 9.18192 53.277 10.9909V11.0512C53.277 11.1115 53.277 11.1718 53.277 11.1718V11.3527C53.277 11.413 53.277 11.5336 53.277 11.5939C53.2167 12.4984 52.9754 12.7999 52.2519 13.1617C51.5283 13.5235 49.4178 13.825 49.1766 13.8853C48.3324 14.0662 45.9807 14.6692 46.041 17.1415C46.1013 19.5535 48.5133 20.3977 50.2017 20.3374C51.8298 20.2771 52.7946 19.6138 53.2167 19.252C53.4579 19.0711 53.4578 19.0711 53.6387 19.3123C53.8799 19.5535 54.6638 20.3374 56.5331 20.3374C58.4627 20.3374 58.7039 19.4329 58.8245 19.1314C58.9451 18.8902 58.5833 18.7093 58.4024 19.0108ZM50.9253 19.6741C49.2369 19.6741 48.8148 18.2872 48.8148 17.5636C48.8148 16.9003 49.1766 15.5134 50.865 14.5486C50.865 14.5486 51.6489 14.0662 53.1563 13.4632C53.2166 13.4632 53.277 13.4632 53.277 13.4632V13.5235C53.277 13.5838 53.277 13.6441 53.277 13.7647V13.7044C53.277 13.7044 53.277 13.7044 53.277 13.7647V16.2973C53.277 18.2269 52.3122 19.6741 50.9253 19.6741ZM45.1365 19.6138C44.6541 19.4932 43.8099 18.9505 43.8099 16.2973V11.4733C43.8099 10.3276 43.9305 7.37293 39.408 7.37293C37.0563 7.37293 35.7297 8.57893 35.6091 8.63923C35.4282 8.82013 35.3076 8.88043 35.2473 8.57893C35.187 8.33773 35.0664 7.97593 35.0061 7.73473C34.9458 7.55383 34.8252 7.37293 34.4031 7.43323C33.981 7.49353 31.3279 7.91563 30.8455 8.03623C30.4234 8.15683 30.544 8.33773 30.8455 8.39803C31.147 8.45833 32.5942 8.57893 32.5942 11.0512C32.5942 13.5235 32.5942 16.237 32.5942 16.237C32.5942 19.252 31.9912 19.4932 31.4485 19.6741C30.7249 19.855 31.0867 20.0962 31.3882 20.0962C31.3882 20.0962 36.7548 20.0962 36.8754 20.0962C37.2372 20.0962 37.4181 19.7344 36.6945 19.6138C35.9709 19.4932 35.3076 19.0711 35.3076 16.7194C35.3076 16.4782 35.3076 13.8853 35.3076 13.4029C35.3076 12.1366 35.0061 8.27743 38.5035 8.21713C40.9758 8.15683 41.217 10.207 41.217 11.5336V16.6591C41.217 18.7696 40.614 19.4329 39.8904 19.5535C39.2271 19.6741 39.3477 19.9756 39.7095 19.9756C39.8301 19.9756 45.3174 19.9756 45.3174 19.9756C45.6189 20.0962 45.9204 19.7947 45.1365 19.6138ZM30.4837 19.0108C30.2425 19.5535 29.7601 19.7344 29.4586 19.7344C29.0968 19.7344 28.0114 19.6741 28.0114 16.84C28.0114 16.84 28.0114 11.1115 28.0114 10.7497C28.0114 8.88043 26.5642 7.37293 22.8256 7.37293C18.7855 7.37293 18.7252 9.36282 18.7252 9.84522C18.6649 10.3879 18.9664 10.9909 19.9915 10.9909C20.896 10.9909 21.1372 9.96582 21.2578 9.60402C21.3784 9.18192 21.4387 7.97593 23.0668 7.97593C24.4537 7.97593 25.2979 9.18192 25.3582 10.9306C25.3582 11.2321 25.3582 11.413 25.3582 11.5939C25.3582 11.7145 25.3582 11.8351 25.2979 11.8954V11.9557C25.1773 12.5587 24.8758 12.8602 24.3331 13.1014C23.6095 13.4632 21.499 13.7647 21.2578 13.825C20.4136 14.0059 18.0619 14.6089 18.1222 17.0812C18.1825 19.4932 20.5945 20.3374 22.2829 20.2771C23.911 20.2168 24.8758 19.5535 25.2979 19.1917C25.5391 19.0108 25.5391 19.0108 25.72 19.252C25.9612 19.4932 26.7451 20.2771 28.6144 20.2771C30.544 20.2771 30.7852 19.3726 30.9058 19.0711C31.0264 18.8902 30.6043 18.7093 30.4837 19.0108ZM22.9462 19.6741C21.2578 19.6741 20.8357 18.2872 20.8357 17.5636C20.8357 16.84 21.1975 15.5134 22.8859 14.5486C22.8859 14.5486 23.6698 14.0662 25.1773 13.4632C25.2376 13.4632 25.2979 13.4632 25.2979 13.4632C25.2979 13.4632 25.3582 13.5235 25.3582 13.5838C25.3582 13.5838 25.3582 13.6441 25.3582 13.7044V13.7647V16.2973C25.3582 18.2269 24.3934 19.6741 22.9462 19.6741ZM17.1574 14.428C16.5544 16.3576 15.4087 19.4932 11.2481 19.6138C6.90649 19.6741 4.3136 16.7194 4.193 11.2321C4.0121 5.38304 6.54469 0.920866 10.4642 0.800267C14.866 0.739967 16.4338 5.98604 16.4941 6.76994C16.5544 7.37293 17.3383 7.31263 17.3383 6.70964C17.3383 6.40814 16.9765 1.22236 16.8559 0.619368C16.7353 0.0163711 16.2529 0.25757 16.1323 0.498769C16.072 0.679668 16.1926 0.31787 15.9514 0.860567C15.7102 1.40326 15.0469 1.10177 14.8057 1.04147C14.0822 0.739967 12.6953 0.0163711 10.4642 0.0766708C5.3387 0.19727 0.0926227 3.99615 0.213222 10.6291C0.333821 17.0812 5.5196 20.6992 10.3436 20.6389C14.7454 20.5786 17.2177 17.8048 17.9413 14.6089C18.1825 13.825 17.3986 13.6441 17.1574 14.428Z" fill="white"/>
</svg>
