<svg width="89" height="30" viewBox="0 0 89 30" fill="none" xmlns="http://www.w3.org/2000/svg">
<path d="M17.4723 1.24274L7.08118 28.3212H28.5574L38.9485 1.24274H17.4723ZM39.2479 6.90237L32.6524 24.1305H35.2621L37.0454 19.327H43.8382L45.6216 24.1305H48.3858L41.6325 6.90237H39.2479ZM12.7813 6.90305L1.29028 6.90574V24.1352H3.77097V16.5916H9.06389L9.90723 14.3953H3.77097V9.12428H11.9314L12.7813 6.90305ZM22.806 7.01747C23.6619 7.01747 24.4303 7.12301 25.1084 7.3331C25.7874 7.54273 26.3817 7.80507 26.8905 8.1202C27.3993 8.43532 27.8363 8.77825 28.1996 9.14994C28.5633 9.52162 28.858 9.87648 29.0844 10.2158L27.4358 11.6217C27.2418 11.3474 27.0116 11.0599 26.7458 10.761C26.479 10.4625 26.1593 10.1919 25.788 9.94954C25.4161 9.70713 24.9876 9.50552 24.5026 9.34392C24.0184 9.18232 23.4604 9.10128 22.8303 9.10128C21.9416 9.10128 21.1457 9.27132 20.4424 9.61023C19.7396 9.9496 19.1416 10.4093 18.6485 10.9911C18.1563 11.5729 17.7799 12.251 17.5216 13.0263C17.2634 13.802 17.1342 14.6263 17.1342 15.498C17.1342 16.3707 17.2674 17.1906 17.5341 17.9573C17.8009 18.7249 18.1769 19.3916 18.661 19.9563C19.146 20.5219 19.7354 20.9658 20.4306 21.2885C21.1253 21.6122 21.9009 21.7732 22.7573 21.7732C23.4848 21.7732 24.1111 21.6807 24.6361 21.4944C25.1615 21.309 25.6058 21.0873 25.9695 20.8282C26.3328 20.5701 26.6317 20.3078 26.8661 20.0411C27.1001 19.775 27.2983 19.5528 27.4595 19.375L29.0844 20.7316C28.9065 21.022 28.6315 21.3539 28.2601 21.7252C27.8883 22.0964 27.436 22.448 26.903 22.7792C26.3695 23.1101 25.7551 23.3888 25.0604 23.615C24.3657 23.8412 23.5975 23.9543 22.7573 23.9543C21.5614 23.9543 20.4705 23.7436 19.4853 23.3244C18.4995 22.9042 17.6515 22.319 16.9401 21.568C16.2292 20.8166 15.6758 19.9284 15.2797 18.9022C14.8832 17.8765 14.6857 16.7576 14.6857 15.546C14.6857 14.3672 14.8832 13.2611 15.2797 12.2273C15.6758 11.1935 16.2292 10.2888 16.9401 9.51356C17.6515 8.73831 18.5037 8.12797 19.4971 7.68356C20.4909 7.2396 21.5939 7.01747 22.806 7.01747ZM40.4366 9.66613L43.0889 17.2347H37.7691L40.4366 9.66613Z" fill="white"/>
<path d="M74.088 6.80176C73.784 6.80176 73.5062 6.85721 73.2539 6.96943C73.0015 7.08121 72.7843 7.2341 72.6019 7.42578C72.4196 7.61791 72.2787 7.84149 72.179 8.09781C72.0788 8.35368 72.029 8.62798 72.029 8.91976C72.029 9.22007 72.0788 9.49601 72.179 9.74829C72.2787 10.0001 72.4192 10.2196 72.5993 10.4059C72.7794 10.5917 72.9941 10.7368 73.242 10.8405C73.4904 10.9451 73.7643 10.9963 74.0643 10.9963C74.2565 10.9963 74.4385 10.9704 74.611 10.9188C74.783 10.8662 74.9411 10.7997 75.0853 10.7175C75.2294 10.6358 75.3544 10.546 75.4609 10.4499C75.5669 10.3538 75.6498 10.2605 75.7095 10.1685L75.1813 9.71213C75.1333 9.76061 75.08 9.81755 75.0221 9.88309C74.9637 9.94953 74.8919 10.0123 74.8057 10.0725C74.7199 10.1326 74.6158 10.1829 74.4932 10.2224C74.3715 10.2628 74.2245 10.2829 74.0525 10.2829C73.8643 10.2829 73.6953 10.2462 73.5453 10.1744C73.3948 10.1021 73.266 10.0041 73.1578 9.8798C73.05 9.75591 72.9664 9.6102 72.9085 9.44187C72.8501 9.27398 72.8217 9.09414 72.8217 8.90201C72.8217 8.70988 72.8501 8.52667 72.9085 8.35295C72.9664 8.17877 73.0506 8.02678 73.1611 7.8966C73.2711 7.76687 73.4041 7.66236 73.5604 7.58425C73.7167 7.5066 73.8917 7.46787 74.088 7.46787C74.3444 7.46787 74.5579 7.52332 74.7281 7.63555C74.8983 7.74732 75.0467 7.8958 75.1747 8.0794L75.7095 7.6053C75.6296 7.49352 75.5374 7.38863 75.4333 7.29033C75.3291 7.19202 75.2099 7.10701 75.076 7.03519C74.9418 6.96292 74.7926 6.90642 74.6287 6.86422C74.4644 6.82248 74.2842 6.80176 74.088 6.80176ZM53.2538 6.89776V10.9003H54.0103V9.27419H55.3792V8.6015H54.0103V7.56387H55.8417V6.89776H53.2538ZM56.8317 6.89776V10.9003H57.5882V6.89776H56.8317ZM58.7572 6.89776V10.9003H59.4959V8.01956L61.453 10.9003H62.1977V6.89776H61.4589V9.74237L59.5196 6.89776H58.7572ZM64.5751 6.89776L63.0561 10.9003H63.8482L64.1968 9.88638H65.6855L66.0341 10.9003H66.8749L65.3553 6.89776H64.5751ZM67.6932 6.89776V10.9003H68.4313V8.01956L70.389 10.9003H71.1337V6.89776H70.3949V9.74237L68.4556 6.89776H67.6932ZM76.5956 6.89776V10.9003H77.3515V6.89776H76.5956ZM79.6921 6.89776L78.1731 10.9003H78.9652L79.3138 9.88638H80.8025L81.1511 10.9003H81.9918L80.4722 6.89776H79.6921ZM82.647 6.89776V10.9003H85.3784V10.2283H83.4029V6.89776H82.647ZM64.9408 7.70788L65.4697 9.26235H64.4073L64.9408 7.70788ZM80.0585 7.70788L80.5861 9.26235H79.5237L80.0585 7.70788ZM59.2683 13.4438C58.976 13.4438 58.7029 13.4989 58.4487 13.6088C58.1945 13.7184 57.9746 13.8689 57.7882 14.0593C57.6023 14.2492 57.455 14.4721 57.3468 14.728C57.239 14.9839 57.185 15.2582 57.185 15.55C57.185 15.8426 57.239 16.1167 57.3468 16.3726C57.455 16.6289 57.6027 16.8527 57.7908 17.0453C57.979 17.2369 58.1996 17.3879 58.452 17.4983C58.7039 17.6083 58.976 17.6627 59.2683 17.6627C59.5607 17.6627 59.833 17.6083 60.0854 17.4983C60.3373 17.3879 60.557 17.2369 60.7452 17.0453C60.9333 16.8527 61.081 16.6289 61.1892 16.3726C61.2979 16.1167 61.3517 15.8426 61.3517 15.55C61.3517 15.2582 61.2979 14.9839 61.1892 14.728C61.081 14.4721 60.9333 14.2492 60.7452 14.0593C60.557 13.8689 60.3373 13.7184 60.0854 13.6088C59.833 13.4989 59.5607 13.4438 59.2683 13.4438ZM55.0312 13.4563C54.7272 13.4563 54.449 13.5117 54.1971 13.624C53.9447 13.7357 53.7275 13.8886 53.5452 14.0803C53.3629 14.2724 53.2219 14.4965 53.1222 14.7523C53.0221 15.0087 52.9716 15.2825 52.9716 15.5743C52.9716 15.8746 53.0221 16.151 53.1222 16.4028C53.2219 16.6551 53.362 16.8741 53.5426 17.0604C53.7222 17.2462 53.9367 17.3913 54.1846 17.495C54.433 17.5996 54.7076 17.6509 55.0076 17.6509C55.1993 17.6509 55.3818 17.6249 55.5542 17.5733C55.7262 17.5208 55.8837 17.4542 56.0279 17.3721C56.172 17.2904 56.2968 17.2012 56.4028 17.1051C56.5093 17.009 56.5924 16.915 56.6521 16.823L56.1246 16.3666C56.0765 16.4151 56.0233 16.4721 55.9654 16.5376C55.907 16.6041 55.8352 16.6668 55.7489 16.727C55.6632 16.7871 55.5591 16.8374 55.4365 16.8769C55.3148 16.9173 55.1671 16.9368 54.9951 16.9368C54.8069 16.9368 54.6381 16.9007 54.4885 16.8289C54.3381 16.7566 54.2086 16.6593 54.1004 16.535C53.9926 16.4111 53.9097 16.2647 53.8517 16.0964C53.7934 15.9285 53.7643 15.7487 53.7643 15.5565C53.7643 15.3644 53.7934 15.181 53.8517 15.0068C53.9097 14.8331 53.9932 14.6813 54.1037 14.5511C54.2137 14.4214 54.3467 14.3169 54.503 14.2388C54.6593 14.1611 54.835 14.1224 55.0312 14.1224C55.2872 14.1224 55.5005 14.1783 55.6707 14.2901C55.8409 14.4023 55.99 14.5503 56.118 14.7339L56.6521 14.2605C56.5722 14.1483 56.4807 14.0432 56.3765 13.9448C56.2723 13.8465 56.1531 13.7622 56.0193 13.6904C55.885 13.6181 55.7359 13.5605 55.572 13.5187C55.4076 13.477 55.2275 13.4563 55.0312 13.4563ZM77.3811 13.4563C77.0771 13.4563 76.7989 13.5117 76.547 13.624C76.2946 13.7357 76.0769 13.8886 75.895 14.0803C75.7127 14.2724 75.5722 14.4965 75.4721 14.7523C75.3724 15.0087 75.3221 15.2825 75.3221 15.5743C75.3221 15.8746 75.3724 16.151 75.4721 16.4028C75.5722 16.6551 75.7119 16.8741 75.8924 17.0604C76.0721 17.2462 76.2866 17.3913 76.5345 17.495C76.7828 17.5996 77.0574 17.6509 77.3574 17.6509C77.5496 17.6509 77.7316 17.6249 77.9041 17.5733C78.0756 17.5208 78.234 17.4542 78.3777 17.3721C78.5219 17.2904 78.6473 17.2012 78.7533 17.1051C78.8598 17.009 78.9429 16.915 79.0026 16.823L78.4744 16.3666C78.4264 16.4151 78.3727 16.4721 78.3152 16.5376C78.2568 16.6041 78.1846 16.6668 78.0988 16.727C78.013 16.7871 77.9089 16.8374 77.7863 16.8769C77.6646 16.9173 77.5176 16.9368 77.3456 16.9368C77.1574 16.9368 76.9877 16.9007 76.8377 16.8289C76.6877 16.7566 76.5591 16.6593 76.4509 16.535C76.3427 16.4111 76.2595 16.2647 76.2016 16.0964C76.1432 15.9285 76.1141 15.7487 76.1141 15.5565C76.1141 15.3644 76.1432 15.181 76.2016 15.0068C76.2595 14.8331 76.3435 14.6813 76.4535 14.5511C76.564 14.4214 76.6966 14.3169 76.8529 14.2388C77.0087 14.1611 77.1848 14.1224 77.3811 14.1224C77.6371 14.1224 77.8503 14.1783 78.0205 14.2901C78.1907 14.4023 78.3398 14.5503 78.4678 14.7339L79.0026 14.2605C78.9227 14.1483 78.8305 14.0432 78.7264 13.9448C78.6222 13.8465 78.5028 13.7622 78.3685 13.6904C78.2347 13.6181 78.0855 13.5605 77.9212 13.5187C77.7573 13.477 77.5773 13.4563 77.3811 13.4563ZM62.1556 13.5523V17.5549H62.8937V14.6741L64.8514 17.5549H65.596V13.5523H64.8573V16.3969L62.918 13.5523H62.1556ZM66.7209 13.5523V17.5549H68.2096C68.5181 17.5549 68.8017 17.514 69.0621 17.4319C69.3222 17.3502 69.5473 17.2265 69.7377 17.0604C69.9277 16.8943 70.0758 16.6876 70.1818 16.4416C70.2878 16.1961 70.341 15.9065 70.341 15.5743C70.341 15.2264 70.2892 14.9247 70.1851 14.6688C70.0809 14.4125 69.934 14.2021 69.7463 14.0382C69.5581 13.8739 69.3336 13.7519 69.074 13.672C68.8135 13.5921 68.5274 13.5523 68.2149 13.5523H66.7209ZM71.1962 13.5523V16.078C71.1962 16.3029 71.2322 16.5112 71.304 16.7033C71.3763 16.8954 71.4828 17.0614 71.6224 17.2037C71.7625 17.3456 71.9339 17.4583 72.1355 17.5404C72.3376 17.6221 72.5691 17.6634 72.8295 17.6634C73.0896 17.6634 73.3208 17.6221 73.5229 17.5404C73.725 17.4583 73.8959 17.3456 74.036 17.2037C74.1761 17.0614 74.2821 16.8954 74.3544 16.7033C74.4263 16.5112 74.4623 16.3029 74.4623 16.078V13.5523H73.7051V15.9465C73.7051 16.0986 73.6905 16.2358 73.6604 16.3574C73.6308 16.4795 73.582 16.5836 73.5137 16.6698C73.4454 16.756 73.3551 16.8221 73.2433 16.8684C73.1311 16.9142 72.9935 16.9368 72.8295 16.9368C72.6652 16.9368 72.5263 16.9142 72.4145 16.8684C72.3022 16.8221 72.2126 16.756 72.1447 16.6698C72.0765 16.5836 72.0275 16.4795 71.9974 16.3574C71.9673 16.2358 71.9527 16.0986 71.9527 15.9465V13.5523H71.1962ZM79.6881 13.5523V14.2184H81.0446V17.5555H81.8011V14.2184H83.1582V13.5523H79.6881ZM59.2683 14.1283C59.4646 14.1283 59.6422 14.1654 59.8025 14.2394C59.9624 14.3135 60.0987 14.4146 60.211 14.5426C60.3228 14.6705 60.4087 14.8194 60.4689 14.9891C60.5291 15.1596 60.559 15.3412 60.559 15.5329C60.559 15.721 60.5291 15.9003 60.4689 16.0727C60.4087 16.2442 60.3228 16.3956 60.211 16.5258C60.0987 16.6555 59.9624 16.759 59.8025 16.8348C59.6422 16.9111 59.4646 16.9492 59.2683 16.9492C59.068 16.9492 58.889 16.9111 58.7309 16.8348C58.5728 16.759 58.4375 16.6555 58.3257 16.5258C58.2134 16.3956 58.1273 16.2442 58.0671 16.0727C58.007 15.9003 57.977 15.721 57.977 15.5329C57.977 15.3412 58.007 15.1596 58.0671 14.9891C58.1273 14.8194 58.2134 14.6705 58.3257 14.5426C58.4375 14.4146 58.5728 14.3135 58.7309 14.2394C58.889 14.1654 59.068 14.1283 59.2683 14.1283ZM67.4768 14.2243H68.1432C68.6358 14.2243 68.9931 14.3462 69.2154 14.5899C69.4377 14.8346 69.5483 15.1666 69.5483 15.5868C69.5483 16.0105 69.4281 16.3328 69.1878 16.5527C68.948 16.7727 68.5994 16.8828 68.1432 16.8828H67.4768V14.2243ZM71.7112 20.0063C71.4189 20.0063 71.1469 20.0618 70.8922 20.1713C70.6381 20.2813 70.4177 20.4307 70.2318 20.6211C70.0454 20.811 69.8986 21.0346 69.7904 21.2905C69.6821 21.5463 69.6285 21.8202 69.6285 22.1124C69.6285 22.4047 69.6821 22.6787 69.7904 22.935C69.8986 23.1909 70.0462 23.4145 70.2344 23.6071C70.423 23.7992 70.6425 23.9497 70.8949 24.0601C71.1468 24.1701 71.4189 24.2258 71.7112 24.2258C72.0036 24.2258 72.2759 24.1701 72.5283 24.0601C72.7802 23.9497 73.0006 23.7992 73.1887 23.6071C73.3769 23.4145 73.5252 23.1909 73.6334 22.935C73.7416 22.6787 73.7952 22.4047 73.7952 22.1124C73.7952 21.8202 73.7416 21.5463 73.6334 21.2905C73.5252 21.0346 73.3769 20.811 73.1887 20.6211C73.0006 20.4307 72.7802 20.2813 72.5283 20.1713C72.2759 20.0618 72.0036 20.0063 71.7112 20.0063ZM54.257 20.1141L52.738 24.1173H53.5301L53.8787 23.1034H55.3674L55.716 24.1173H56.5568L55.0372 20.1141H54.257ZM57.0837 20.1141V22.6404C57.0837 22.8649 57.1197 23.0735 57.1916 23.2651C57.2639 23.4573 57.3703 23.6239 57.51 23.7662C57.6501 23.9076 57.8216 24.0201 58.0237 24.1022C58.2258 24.1839 58.4566 24.2252 58.7171 24.2252C58.9771 24.2252 59.2083 24.1839 59.4104 24.1022C59.6125 24.0201 59.7841 23.9076 59.9242 23.7662C60.0643 23.6239 60.1703 23.4573 60.2426 23.2651C60.3144 23.0735 60.3498 22.8649 60.3498 22.6404V20.1141H59.5933V22.5089C59.5933 22.6611 59.5787 22.7978 59.5486 22.9199C59.5189 23.0416 59.4701 23.1461 59.4019 23.2323C59.3336 23.318 59.2433 23.3839 59.1315 23.4302C59.0192 23.476 58.881 23.4992 58.7171 23.4992C58.5527 23.4992 58.4145 23.476 58.3026 23.4302C58.1904 23.3839 58.1007 23.318 58.0329 23.2323C57.9647 23.1461 57.9157 23.0416 57.8856 22.9199C57.8555 22.7978 57.8408 22.6611 57.8408 22.5089V20.1141H57.0837ZM61.1247 20.1141V20.7802H62.4818V24.1173H63.2377V20.7802H64.5948V20.1141H61.1247ZM65.2658 20.1141V24.1173H66.0223V22.3952H68.0096V24.1173H68.7661V20.1141H68.0096V21.7225H66.0223V20.1141H65.2658ZM74.6458 20.1141V24.1173H75.3727V22.5392H75.9424L76.7535 24.1173H77.6061L76.6812 22.4432C76.9093 22.3265 77.079 22.1715 77.189 21.9776C77.299 21.7837 77.3541 21.5605 77.3541 21.3082C77.3541 21.1803 77.3283 21.0465 77.2785 20.9065C77.2286 20.7668 77.1499 20.6372 77.0416 20.5192C76.9334 20.4011 76.7914 20.3042 76.6154 20.2279C76.4393 20.1524 76.2253 20.1141 75.9733 20.1141H74.6458ZM80.0749 20.1141V20.7802H81.4327V24.1173H82.1892V20.7802H83.5456V20.1141H80.0749ZM84.0173 20.1141L85.4047 22.359V24.1173H86.173V22.359L87.5597 20.1141H86.767L85.8066 21.7107L84.8455 20.1141H84.0173ZM78.4836 20.1148V24.1173H79.2401V20.1148H78.4836ZM71.7112 20.6908C71.9075 20.6908 72.0862 20.7276 72.2461 20.8013C72.4064 20.8753 72.5421 20.9765 72.6539 21.1044C72.7662 21.2323 72.8525 21.3814 72.9131 21.5515C72.9728 21.7217 73.0026 21.903 73.0026 22.0947C73.0026 22.2832 72.9728 22.4628 72.9131 22.6352C72.8525 22.8067 72.7662 22.9581 72.6539 23.0883C72.5421 23.218 72.4064 23.3208 72.2461 23.3967C72.0862 23.473 71.9075 23.5111 71.7112 23.5111C71.5109 23.5111 71.3323 23.473 71.1738 23.3967C71.0157 23.3208 70.8815 23.218 70.7692 23.0883C70.6574 22.9581 70.5709 22.8067 70.5107 22.6352C70.4505 22.4628 70.4206 22.2832 70.4206 22.0947C70.4206 21.903 70.4505 21.7217 70.5107 21.5515C70.5709 21.3814 70.6574 21.2323 70.7692 21.1044C70.8815 20.9765 71.0157 20.8753 71.1738 20.8013C71.3323 20.7276 71.5109 20.6908 71.7112 20.6908ZM75.3727 20.7565H75.9792C76.1593 20.7565 76.3051 20.8101 76.4174 20.9183C76.5292 21.0265 76.5851 21.1666 76.5851 21.3385C76.5851 21.4983 76.5319 21.6351 76.4259 21.7468C76.3199 21.8591 76.1715 21.9145 75.9792 21.9145H75.3727V20.7565ZM54.6234 20.9242L55.1516 22.4787H54.0892L54.6234 20.9242Z" fill="white"/>
</svg>
