<svg width="102" height="30" viewBox="0 0 102 30" fill="none" xmlns="http://www.w3.org/2000/svg">
<g clip-path="url(#clip0_1965_5710)">
<path d="M7.58919 21.347C7.6788 21.347 7.76061 21.347 7.85801 21.347C8.09955 21.347 8.345 21.347 8.39954 21.6495C8.40569 21.6724 8.41943 21.6925 8.43854 21.7066C8.45764 21.7207 8.48097 21.7279 8.50473 21.7271C8.51648 21.7277 8.52823 21.7258 8.53917 21.7215C8.55012 21.7172 8.55999 21.7106 8.56813 21.7021C8.57626 21.6936 8.58247 21.6835 8.58632 21.6724C8.59017 21.6613 8.59157 21.6496 8.59044 21.6379C8.59044 21.5176 8.56706 21.4517 8.56706 21.25C8.56706 21.0483 8.59044 20.862 8.59044 20.7806C8.59159 20.7699 8.59039 20.7592 8.58694 20.749C8.58349 20.7389 8.57786 20.7296 8.57044 20.7219C8.56303 20.7141 8.554 20.7081 8.544 20.7041C8.534 20.7002 8.52325 20.6985 8.51252 20.6991C8.48639 20.6968 8.46032 20.7042 8.43941 20.72C8.41851 20.7358 8.40429 20.7588 8.39954 20.7845C8.36058 21.1103 8.09566 21.1103 7.84632 21.1103C7.76061 21.1103 7.66321 21.1103 7.58919 21.1103V20.0435C7.65648 20.0188 7.72786 20.0069 7.79957 20.0086H8.11903C8.2693 19.988 8.42176 20.0256 8.54499 20.1137C8.66822 20.2018 8.75282 20.3335 8.78134 20.4819C8.78633 20.5021 8.79775 20.5202 8.81389 20.5335C8.83003 20.5468 8.85003 20.5545 8.87094 20.5556C8.88851 20.5556 8.90535 20.5486 8.91777 20.5363C8.9302 20.5239 8.93717 20.5071 8.93717 20.4896V19.8418C8.93717 19.772 8.88263 19.7526 8.80471 19.7526H6.64249C6.60353 19.7526 6.58794 19.7875 6.58794 19.8224C6.5855 19.8433 6.59091 19.8644 6.60314 19.8816C6.61537 19.8988 6.63354 19.9109 6.65417 19.9155C6.88014 19.9504 6.93857 19.997 6.95416 20.2065C6.95416 20.2996 6.95416 20.5284 6.95416 21.0095V21.5914C6.95416 22.0724 6.95416 22.2625 6.95416 22.3672C6.95416 22.5689 6.86455 22.6116 6.6308 22.6426C6.61121 22.6464 6.59367 22.6571 6.58147 22.6728C6.56927 22.6885 6.56326 22.7082 6.56457 22.728C6.56457 22.7706 6.58794 22.8094 6.6269 22.8094H8.11124C8.1541 22.8094 8.17358 22.7706 8.17358 22.728C8.17591 22.7085 8.17078 22.689 8.15923 22.6731C8.14767 22.6573 8.13053 22.6464 8.11124 22.6426C7.78788 22.5883 7.63594 22.5495 7.61257 22.375C7.588 22.1171 7.58019 21.858 7.58919 21.5991V21.347ZM10.5657 20.9862C10.5657 20.5284 10.5657 20.2957 10.5851 20.2103C10.6163 20.0125 10.6786 19.9543 10.8656 19.9194C10.8842 19.9157 10.9008 19.9053 10.9122 19.8904C10.9237 19.8754 10.9293 19.8567 10.928 19.8379C10.9291 19.829 10.9283 19.8199 10.9257 19.8112C10.9231 19.8025 10.9187 19.7945 10.9129 19.7876C10.907 19.7807 10.8998 19.775 10.8917 19.771C10.8836 19.767 10.8747 19.7647 10.8656 19.7642H9.61895C9.60104 19.7662 9.58458 19.7749 9.57297 19.7886C9.56137 19.8024 9.55551 19.82 9.55662 19.8379C9.55543 19.8573 9.56157 19.8764 9.57383 19.8915C9.58609 19.9066 9.60358 19.9165 9.62285 19.9194C9.85271 19.9543 9.90725 19.997 9.92673 20.2103C9.92673 20.3034 9.94621 20.5246 9.94621 20.9862V21.5836C9.94621 22.0646 9.94621 22.2547 9.92673 22.3594C9.92673 22.5612 9.83323 22.6038 9.60337 22.6349C9.58378 22.6386 9.56624 22.6494 9.55404 22.6651C9.54184 22.6808 9.53583 22.7004 9.53714 22.7202C9.53714 22.7629 9.55662 22.8017 9.59948 22.8017H10.9163C10.9591 22.8017 10.9786 22.7629 10.9786 22.7202C10.9801 22.7009 10.9746 22.6818 10.9632 22.6661C10.9518 22.6505 10.9352 22.6394 10.9163 22.6349C10.7098 22.6 10.6163 22.5534 10.5851 22.3594C10.5851 22.2586 10.5657 22.053 10.5657 21.5836V20.9862ZM14.333 22.8211C14.3483 22.8426 14.368 22.8607 14.3909 22.874C14.4137 22.8874 14.4391 22.8958 14.4655 22.8987C14.5122 22.8987 14.5434 22.8676 14.5434 22.7823V20.9862C14.5288 20.7043 14.5484 20.4216 14.6018 20.1444C14.633 20.0164 14.6719 19.9543 14.8667 19.9233C14.8859 19.9166 14.9023 19.9039 14.9135 19.8871C14.9248 19.8703 14.9302 19.8503 14.9291 19.8302C14.9302 19.821 14.9294 19.8117 14.9268 19.8028C14.9243 19.7939 14.92 19.7856 14.9142 19.7784C14.9084 19.7712 14.9012 19.7652 14.8931 19.7608C14.8849 19.7563 14.876 19.7535 14.8667 19.7526H13.885C13.846 19.7526 13.8265 19.7914 13.8265 19.8302C13.8241 19.8511 13.8295 19.8722 13.8417 19.8894C13.8539 19.9065 13.8721 19.9186 13.8928 19.9233C14.1226 19.9543 14.1811 20.0009 14.1966 20.2103C14.225 20.4744 14.238 20.74 14.2356 21.0056V21.7194L12.537 19.7526H11.7578C11.6955 19.7526 11.6682 19.7797 11.6682 19.8185C11.6723 19.8552 11.6888 19.8894 11.7149 19.9155L11.9721 20.2103C11.9721 20.3034 11.9721 20.5129 11.9721 20.9862V21.5836C11.9721 22.0646 11.9721 22.2431 11.9721 22.3594C11.9721 22.5612 11.9214 22.6155 11.6877 22.6465C11.6681 22.6503 11.6505 22.661 11.6383 22.6767C11.6262 22.6924 11.6201 22.712 11.6214 22.7319C11.6214 22.7745 11.6214 22.8133 11.6838 22.8133H12.7318C12.7707 22.8133 12.7941 22.7706 12.7941 22.728C12.7954 22.7092 12.7898 22.6905 12.7784 22.6755C12.7669 22.6606 12.7503 22.6502 12.7318 22.6465C12.4591 22.6232 12.3422 22.5301 12.3422 22.34L12.2993 20.5439L14.333 22.8211ZM17.1614 19.7526H16.5615C16.5526 19.7515 16.5437 19.7523 16.5352 19.7549C16.5267 19.7575 16.5189 19.7619 16.5122 19.7678C16.5056 19.7736 16.5003 19.7809 16.4967 19.789C16.4931 19.797 16.4913 19.8058 16.4913 19.8146C16.4865 19.839 16.4865 19.864 16.4913 19.8884L16.6199 20.1677L15.8836 22.1073C15.7082 22.5728 15.5485 22.6038 15.3693 22.6349C15.3511 22.6377 15.3346 22.6473 15.323 22.6616C15.3115 22.676 15.3058 22.6941 15.307 22.7125C15.3064 22.7243 15.3084 22.7362 15.3127 22.7472C15.317 22.7583 15.3235 22.7684 15.332 22.7768C15.3404 22.7852 15.3505 22.7917 15.3616 22.796C15.3728 22.8003 15.3847 22.8022 15.3966 22.8017H16.3082C16.3193 22.8029 16.3304 22.8017 16.3409 22.798C16.3514 22.7943 16.361 22.7884 16.3688 22.7806C16.3767 22.7727 16.3827 22.7632 16.3863 22.7528C16.39 22.7423 16.3913 22.7312 16.39 22.7202C16.39 22.6814 16.3667 22.6388 16.3316 22.6349C16.1641 22.6349 16.0823 22.6349 16.0823 22.5379C16.0774 22.5123 16.0774 22.4859 16.0823 22.4603L16.2809 21.8862H17.3017L17.438 22.2275C17.4778 22.3054 17.5042 22.3893 17.5159 22.4758C17.5159 22.5767 17.4536 22.6232 17.2861 22.6349C17.2668 22.6386 17.2497 22.6495 17.2381 22.6654C17.2265 22.6812 17.2214 22.7008 17.2238 22.7202C17.2238 22.7629 17.2238 22.8017 17.2783 22.8017H18.5445C18.5873 22.8017 18.6068 22.7629 18.6068 22.7202C18.6081 22.7004 18.6021 22.6808 18.5899 22.6651C18.5777 22.6494 18.5602 22.6386 18.5406 22.6349C18.3575 22.6116 18.2562 22.5961 17.999 21.9444L17.1614 19.7526ZM16.7991 20.5052L17.2354 21.6301H16.4056L16.7991 20.5052ZM21.9612 22.8327C21.9765 22.8543 21.9962 22.8723 22.019 22.8857C22.0419 22.8991 22.0673 22.9075 22.0936 22.9103C22.1404 22.9103 22.1715 22.8793 22.1715 22.7939V20.9862C22.157 20.7043 22.1766 20.4216 22.23 20.1444C22.2612 20.0164 22.3001 19.9543 22.4949 19.9233C22.514 19.9166 22.5304 19.9039 22.5417 19.8871C22.5529 19.8703 22.5584 19.8503 22.5572 19.8302C22.5583 19.821 22.5576 19.8117 22.555 19.8028C22.5525 19.7939 22.5482 19.7856 22.5424 19.7784C22.5366 19.7712 22.5294 19.7652 22.5212 19.7608C22.5131 19.7563 22.5041 19.7535 22.4949 19.7526H21.517C21.4742 19.7526 21.4547 19.7914 21.4547 19.8302C21.4523 19.8511 21.4577 19.8722 21.4699 19.8894C21.4821 19.9065 21.5003 19.9186 21.5209 19.9233C21.7508 19.9543 21.8092 20.0009 21.8248 20.2103C21.8532 20.4744 21.8662 20.74 21.8638 21.0056V21.7194L20.1613 19.7526H19.3821C19.3197 19.7526 19.2925 19.7797 19.2925 19.8185C19.2966 19.8552 19.3131 19.8894 19.3392 19.9155L19.5964 20.2103C19.5964 20.3034 19.5964 20.5129 19.5964 20.9862V21.5836C19.5964 22.0646 19.5964 22.2431 19.5964 22.3594C19.5964 22.5612 19.5457 22.6155 19.312 22.6465C19.2924 22.6503 19.2748 22.661 19.2626 22.6767C19.2504 22.6924 19.2444 22.712 19.2457 22.7319C19.2457 22.7745 19.2457 22.8133 19.3081 22.8133H20.3677C20.4067 22.8133 20.4301 22.7706 20.4301 22.728C20.4314 22.7092 20.4258 22.6905 20.4143 22.6755C20.4029 22.6606 20.3863 22.6502 20.3677 22.6465C20.095 22.6232 19.9782 22.5301 19.9782 22.34L19.9392 20.5323L21.9612 22.8327ZM25.7285 22.7008C25.7675 22.7008 25.783 22.6737 25.7869 22.6194L25.8337 21.9715C25.8348 21.9602 25.8335 21.9488 25.8299 21.938C25.8262 21.9272 25.8204 21.9172 25.8127 21.9088C25.805 21.9004 25.7956 21.8937 25.7851 21.8891C25.7746 21.8846 25.7633 21.8822 25.7519 21.8823C25.7265 21.8829 25.7019 21.8909 25.6811 21.9054C25.6603 21.9199 25.6442 21.9402 25.635 21.9638C25.5853 22.1333 25.4833 22.2829 25.3435 22.3915C25.2036 22.5001 25.033 22.5622 24.8558 22.5689C24.174 22.5689 23.8546 22.0879 23.8546 21.2577C23.8546 20.2724 24.3649 19.9737 24.7974 19.9737C25.2298 19.9737 25.374 20.2608 25.5337 20.6409C25.5428 20.6624 25.5579 20.6808 25.5773 20.6939C25.5966 20.707 25.6194 20.7142 25.6428 20.7146C25.6521 20.7157 25.6616 20.7148 25.6705 20.712C25.6795 20.7092 25.6878 20.7045 25.6948 20.6983C25.7018 20.6921 25.7073 20.6844 25.7111 20.6759C25.7149 20.6673 25.7169 20.658 25.7168 20.6487V19.8728C25.7168 19.8185 25.6934 19.7991 25.6584 19.7914C25.403 19.7318 25.1415 19.7019 24.8792 19.7021C23.7767 19.7021 23.1105 20.3539 23.1105 21.281C23.1105 22.2082 23.652 22.8327 24.7039 22.8327C25.0525 22.8349 25.3993 22.7839 25.7324 22.6814L25.7285 22.7008ZM27.4895 20.9784C27.4895 20.5207 27.4895 20.2879 27.5128 20.2026C27.5401 20.0047 27.6024 19.9465 27.7933 19.9116C27.8115 19.9072 27.8276 19.8967 27.839 19.8819C27.8503 19.867 27.8562 19.8488 27.8557 19.8302C27.8568 19.8123 27.8509 19.7946 27.8393 19.7809C27.8277 19.7672 27.8112 19.7584 27.7933 19.7565H26.5622C26.5532 19.7569 26.5443 19.7592 26.5362 19.7633C26.528 19.7673 26.5208 19.7729 26.515 19.7798C26.5091 19.7867 26.5048 19.7948 26.5022 19.8034C26.4996 19.8121 26.4988 19.8212 26.4999 19.8302C26.5022 19.8458 26.5095 19.8603 26.5208 19.8714C26.532 19.8826 26.5465 19.8899 26.5622 19.8922C26.7882 19.9271 26.8466 19.9698 26.8622 20.1832C26.8622 20.2763 26.8622 20.4974 26.8622 20.959V21.5564C26.8622 22.0375 26.8622 22.2276 26.8622 22.3323C26.8622 22.534 26.7726 22.5767 26.5389 22.6077C26.52 22.6123 26.5034 22.6233 26.4919 22.639C26.4805 22.6546 26.475 22.6738 26.4765 22.6931C26.4765 22.7357 26.496 22.7745 26.535 22.7745H27.8557C27.8946 22.7745 27.9141 22.7357 27.9141 22.6931C27.9151 22.6744 27.9099 22.656 27.8993 22.6406C27.8888 22.6252 27.8734 22.6136 27.8557 22.6077C27.6492 22.5728 27.5518 22.5263 27.5245 22.3323C27.5035 22.0742 27.4957 21.8153 27.5011 21.5564L27.4895 20.9784ZM30.349 19.7448H29.7452C29.7364 19.7437 29.7274 19.7445 29.7189 19.7471C29.7104 19.7497 29.7026 19.7541 29.696 19.76C29.6893 19.7659 29.684 19.7731 29.6804 19.7812C29.6768 19.7893 29.675 19.798 29.6751 19.8069C29.6702 19.8312 29.6702 19.8563 29.6751 19.8806L29.8036 20.1599L29.0673 22.0995C28.892 22.565 28.7361 22.5961 28.553 22.6271C28.5348 22.63 28.5183 22.6395 28.5068 22.6539C28.4952 22.6682 28.4895 22.6864 28.4907 22.7047C28.4907 22.7284 28.5001 22.7511 28.5169 22.7678C28.5337 22.7845 28.5565 22.7939 28.5803 22.7939H29.4958C29.5069 22.7952 29.5181 22.7939 29.5286 22.7902C29.5391 22.7866 29.5486 22.7806 29.5564 22.7728C29.5643 22.765 29.5703 22.7555 29.574 22.745C29.5776 22.7346 29.5789 22.7235 29.5777 22.7125C29.5791 22.6932 29.5737 22.674 29.5622 22.6584C29.5508 22.6427 29.5342 22.6317 29.5153 22.6271C29.3517 22.6271 29.266 22.6271 29.266 22.5301C29.2597 22.5047 29.2597 22.478 29.266 22.4525L29.4608 21.8784H30.4815L30.6179 22.2198C30.6577 22.2976 30.684 22.3815 30.6958 22.4681C30.6958 22.5689 30.6373 22.6155 30.4659 22.6271C30.4466 22.6309 30.4295 22.6418 30.4179 22.6576C30.4064 22.6734 30.4013 22.693 30.4036 22.7125C30.4036 22.7551 30.4036 22.7939 30.4581 22.7939H31.7243C31.7672 22.7939 31.7866 22.7551 31.7866 22.7125C31.7879 22.6926 31.7819 22.673 31.7697 22.6573C31.7575 22.6416 31.74 22.6309 31.7204 22.6271C31.5412 22.6038 31.436 22.5883 31.1789 21.9366L30.349 19.7448ZM29.9867 20.4974L30.4231 21.6224H29.5932L29.9867 20.4974ZM34.693 22.7939C34.7514 22.7939 34.8099 22.7939 34.8176 22.7047L34.9228 21.9288C34.9261 21.9179 34.9266 21.9063 34.9243 21.8951C34.922 21.8839 34.9169 21.8735 34.9096 21.8647C34.9023 21.8558 34.893 21.849 34.8823 21.8446C34.8717 21.8402 34.8602 21.8385 34.8488 21.8396C34.8288 21.8368 34.8085 21.8411 34.7914 21.8518C34.7743 21.8624 34.7615 21.8787 34.7553 21.8978C34.6972 22.082 34.5847 22.2445 34.4325 22.3642C34.2803 22.4839 34.0955 22.5552 33.9021 22.5689C33.6528 22.5689 33.5125 22.5418 33.4852 22.3556C33.4852 22.2547 33.4852 22.0413 33.4852 21.5797V20.9901C33.4852 20.5323 33.4852 20.2957 33.4852 20.2142C33.5164 20.0164 33.5787 19.9582 33.7657 19.9233C33.7843 19.9195 33.8009 19.9092 33.8123 19.8942C33.8238 19.8792 33.8294 19.8606 33.8281 19.8418C33.8292 19.8328 33.8284 19.8237 33.8258 19.8151C33.8232 19.8064 33.8188 19.7984 33.813 19.7915C33.8071 19.7846 33.7999 19.7789 33.7918 19.7749C33.7837 19.7709 33.7748 19.7686 33.7657 19.7681H32.5191C32.5012 19.7701 32.4847 19.7788 32.4731 19.7925C32.4615 19.8063 32.4556 19.8239 32.4567 19.8418C32.4555 19.8612 32.4617 19.8803 32.4739 19.8954C32.4862 19.9104 32.5037 19.9204 32.523 19.9233C32.7528 19.9582 32.8113 20.0009 32.8268 20.2142C32.8268 20.3073 32.8268 20.5323 32.8268 21.0133V21.6069C32.8268 22.0879 32.8268 22.278 32.8268 22.3827C32.8268 22.5844 32.7333 22.6271 32.5035 22.6581C32.4839 22.6619 32.4663 22.6726 32.4541 22.6883C32.442 22.7041 32.4359 22.7237 32.4372 22.7435C32.4372 22.7862 32.4372 22.825 32.4996 22.825L34.693 22.7939ZM40.6303 20.7845L40.7511 22.2314C40.7511 22.3284 40.7511 22.3556 40.7511 22.3827C40.7511 22.5534 40.6849 22.5961 40.4745 22.6271C40.4549 22.6309 40.4374 22.6416 40.4252 22.6573C40.413 22.673 40.407 22.6926 40.4083 22.7125C40.4083 22.7551 40.4083 22.7939 40.4706 22.7939H41.7017C41.7407 22.7939 41.764 22.7551 41.764 22.7125C41.7648 22.6933 41.759 22.6745 41.7477 22.659C41.7364 22.6436 41.7202 22.6323 41.7017 22.6271C41.4913 22.5922 41.4251 22.534 41.3978 22.2857L41.1913 20.3461C41.1913 20.2957 41.1913 20.2297 41.1913 20.1793C41.1902 20.1457 41.1961 20.1123 41.2087 20.0811C41.2213 20.0499 41.2404 20.0218 41.2646 19.9984C41.2888 19.975 41.3177 19.9569 41.3494 19.9453C41.381 19.9337 41.4148 19.9288 41.4485 19.931C41.461 19.9322 41.4737 19.9306 41.4856 19.9264C41.4975 19.9221 41.5083 19.9153 41.5173 19.9064C41.5262 19.8975 41.533 19.8868 41.5373 19.8749C41.5416 19.8631 41.5432 19.8504 41.542 19.8379C41.542 19.7991 41.5147 19.7565 41.4757 19.7565H40.7978C40.7754 19.7537 40.7526 19.7583 40.733 19.7695C40.7133 19.7807 40.6978 19.7979 40.6888 19.8185L39.7615 22.0026L38.6395 19.8108C38.6334 19.7924 38.6212 19.7766 38.605 19.766C38.5887 19.7555 38.5693 19.7507 38.5499 19.7526H37.8681C37.8572 19.753 37.8464 19.7557 37.8366 19.7606C37.8268 19.7654 37.8181 19.7723 37.8111 19.7807C37.8041 19.7891 37.799 19.7989 37.796 19.8094C37.7931 19.82 37.7925 19.831 37.7941 19.8418C37.7936 19.8537 37.7955 19.8655 37.7998 19.8766C37.8041 19.8877 37.8107 19.8977 37.8191 19.9061C37.8276 19.9145 37.8377 19.9211 37.8488 19.9254C37.8599 19.9296 37.8718 19.9316 37.8837 19.931C37.9208 19.9286 37.958 19.9343 37.9927 19.9476C38.0274 19.9609 38.0589 19.9815 38.0848 20.008C38.1107 20.0346 38.1305 20.0664 38.1429 20.1014C38.1553 20.1363 38.1599 20.1735 38.1564 20.2103C38.1564 20.2103 38.1564 20.2336 38.1564 20.284L37.9616 22.3284C37.9422 22.534 37.8681 22.6038 37.6383 22.6349C37.6187 22.6386 37.6011 22.6494 37.5889 22.6651C37.5767 22.6808 37.5707 22.7004 37.572 22.7202C37.572 22.7629 37.5915 22.8017 37.6344 22.8017H38.6395C38.6824 22.8017 38.7019 22.7629 38.7019 22.7202C38.7019 22.6775 38.7019 22.6388 38.6395 22.6349C38.3824 22.6349 38.2967 22.5612 38.2967 22.4215C38.2967 22.4215 38.2967 22.3439 38.2967 22.3284L38.3941 20.7767L39.4187 22.8017C39.4316 22.8305 39.4523 22.8551 39.4784 22.8729C39.5045 22.8907 39.5351 22.901 39.5667 22.9025C39.6213 22.9025 39.6758 22.8715 39.7187 22.7784L40.6303 20.7845ZM44.2029 19.7448H43.6029C43.5941 19.7437 43.5851 19.7445 43.5766 19.7471C43.5682 19.7497 43.5603 19.7541 43.5537 19.76C43.5471 19.7659 43.5417 19.7731 43.5381 19.7812C43.5345 19.7893 43.5327 19.798 43.5328 19.8069C43.5279 19.8312 43.5279 19.8563 43.5328 19.8806L43.6613 20.1599L42.925 22.0995C42.7458 22.565 42.59 22.5961 42.4108 22.6271C42.3925 22.63 42.376 22.6395 42.3645 22.6539C42.353 22.6682 42.3472 22.6864 42.3484 22.7047C42.3479 22.7166 42.3498 22.7284 42.3541 22.7395C42.3584 22.7506 42.365 22.7606 42.3734 22.769C42.3819 22.7774 42.392 22.784 42.4031 22.7883C42.4142 22.7925 42.4261 22.7945 42.438 22.7939H43.3497C43.3607 22.7952 43.3719 22.7939 43.3824 22.7902C43.3929 22.7866 43.4024 22.7806 43.4103 22.7728C43.4181 22.765 43.4241 22.7555 43.4278 22.745C43.4315 22.7346 43.4327 22.7235 43.4315 22.7125C43.4315 22.6737 43.4081 22.631 43.373 22.6271C43.2055 22.6271 43.1237 22.6271 43.1237 22.5301C43.1189 22.5045 43.1189 22.4782 43.1237 22.4525L43.3224 21.8784H44.3431L44.4795 22.2198C44.5172 22.2984 44.5435 22.382 44.5574 22.4681C44.5574 22.5689 44.4951 22.6155 44.3275 22.6271C44.3083 22.6309 44.2911 22.6418 44.2796 22.6576C44.268 22.6734 44.2629 22.693 44.2652 22.7125C44.2652 22.7551 44.2652 22.7939 44.3197 22.7939H45.5859C45.6288 22.7939 45.6483 22.7551 45.6483 22.7125C45.6496 22.6926 45.6435 22.673 45.6314 22.6573C45.6192 22.6416 45.6016 22.6309 45.582 22.6271C45.3989 22.6038 45.2976 22.5883 45.0405 21.9366L44.2029 19.7448ZM43.8406 20.4974L44.2769 21.6224H43.4471L43.8406 20.4974ZM48.1845 22.6077C48.2624 22.7094 48.3654 22.7893 48.4835 22.8396C48.6016 22.8899 48.7308 22.9089 48.8585 22.8948C48.9816 22.8953 49.1044 22.8823 49.2247 22.856C49.2636 22.856 49.2792 22.8288 49.2792 22.8094C49.2792 22.7995 49.2763 22.7898 49.2707 22.7815C49.2652 22.7732 49.2573 22.7667 49.2481 22.7629C49.0221 22.6698 48.9792 22.6349 48.726 22.2741L48.1027 21.3857C48.2966 21.3558 48.4738 21.259 48.6034 21.1123C48.733 20.9655 48.8067 20.7781 48.8117 20.5827C48.8117 19.997 48.2468 19.7565 47.7365 19.7565H46.3768C46.3339 19.7565 46.3144 19.7953 46.3144 19.834C46.3128 19.844 46.3132 19.8542 46.3157 19.8641C46.3182 19.8739 46.3227 19.8831 46.3289 19.8911C46.3351 19.8991 46.3429 19.9057 46.3518 19.9106C46.3607 19.9155 46.3706 19.9185 46.3807 19.9194C46.6066 19.9543 46.6651 20.0009 46.6807 20.2103C46.6807 20.3034 46.704 20.5168 46.704 20.9862V21.5836C46.704 22.0646 46.704 22.2547 46.6807 22.3594C46.6807 22.5612 46.5911 22.6038 46.3612 22.6349C46.3416 22.6386 46.3241 22.6494 46.3119 22.6651C46.2997 22.6808 46.2937 22.7004 46.295 22.7202C46.295 22.7629 46.295 22.8017 46.3573 22.8017H47.6819C47.7209 22.8017 47.7442 22.7629 47.7442 22.7202C47.745 22.7011 47.7392 22.6823 47.7279 22.6668C47.7166 22.6513 47.7004 22.6401 47.6819 22.6349C47.4832 22.6038 47.3702 22.5573 47.3508 22.4215C47.3241 22.1016 47.315 21.7804 47.3235 21.4595V19.9931C47.3917 19.9728 47.4627 19.9636 47.5339 19.9659C47.6169 19.9641 47.6993 19.9802 47.7755 20.0131C47.8517 20.0459 47.9199 20.0948 47.9754 20.1563C48.0309 20.2178 48.0724 20.2905 48.097 20.3695C48.1217 20.4484 48.1289 20.5318 48.1183 20.6138C48.1183 21.0987 47.8416 21.281 47.5689 21.281C47.5027 21.281 47.4326 21.281 47.4326 21.3353C47.4326 21.3896 47.4598 21.4245 47.5456 21.5603L48.1845 22.6077ZM51.8622 22.6077C51.9409 22.7086 52.044 22.7878 52.1619 22.8381C52.2798 22.8883 52.4086 22.9078 52.5362 22.8948C52.6593 22.8951 52.7821 22.8821 52.9024 22.856C52.9414 22.856 52.957 22.8288 52.957 22.8094C52.9567 22.799 52.9531 22.789 52.9469 22.7806C52.9406 22.7723 52.9319 22.7661 52.9219 22.7629C52.6998 22.6698 52.6687 22.631 52.4115 22.2741L51.5427 21.056L52.2245 20.2452C52.3635 20.0749 52.5531 19.9527 52.7661 19.8961C52.7839 19.8925 52.7999 19.8827 52.8113 19.8686C52.8227 19.8544 52.8288 19.8367 52.8284 19.8185C52.8285 19.8087 52.8264 19.7989 52.8224 19.7899C52.8184 19.7809 52.8125 19.7728 52.8052 19.7662C52.7978 19.7596 52.7891 19.7546 52.7797 19.7516C52.7703 19.7486 52.7603 19.7476 52.7505 19.7487H51.7181C51.7089 19.7475 51.6996 19.7484 51.6908 19.7512C51.6821 19.7541 51.674 19.7588 51.6673 19.7651C51.6606 19.7714 51.6554 19.7792 51.652 19.7877C51.6487 19.7963 51.6473 19.8055 51.6479 19.8146C51.6472 19.8328 51.6525 19.8506 51.6631 19.8654C51.6737 19.8801 51.6889 19.8909 51.7064 19.8961C51.8778 19.931 51.9713 19.9543 51.9713 20.0164C51.9666 20.0517 51.9502 20.0845 51.9245 20.1095L50.97 21.2733L51.8622 22.6077ZM50.8999 20.9901C50.8999 20.5323 50.8999 20.2996 50.9194 20.2142C50.9506 20.0164 51.0129 19.9582 51.1999 19.9233C51.2185 19.9195 51.235 19.9092 51.2465 19.8942C51.258 19.8792 51.2636 19.8606 51.2622 19.8418C51.2633 19.8328 51.2625 19.8237 51.2599 19.8151C51.2573 19.8064 51.253 19.7984 51.2471 19.7915C51.2413 19.7846 51.2341 19.7789 51.226 19.7749C51.2178 19.7709 51.209 19.7686 51.1999 19.7681H49.9376C49.9197 19.7701 49.9033 19.7788 49.8917 19.7925C49.88 19.8063 49.8742 19.8239 49.8753 19.8418C49.8741 19.8612 49.8803 19.8803 49.8925 19.8954C49.9048 19.9104 49.9223 19.9204 49.9415 19.9233C50.1714 19.9582 50.2298 20.0009 50.2454 20.2142C50.2454 20.3073 50.2454 20.5284 50.2454 20.9901V21.5875C50.2454 22.0685 50.2454 22.2586 50.2454 22.3633C50.2454 22.565 50.1519 22.6077 49.9221 22.6388C49.9025 22.6425 49.8849 22.6532 49.8727 22.6689C49.8605 22.6847 49.8545 22.7043 49.8558 22.7241C49.8558 22.7668 49.8558 22.8056 49.9182 22.8056H51.235C51.2778 22.8056 51.2973 22.7668 51.2973 22.7241C51.2988 22.7048 51.2933 22.6857 51.2819 22.67C51.2705 22.6544 51.2538 22.6433 51.235 22.6388C51.0285 22.6038 50.935 22.5573 50.9038 22.3633C50.9038 22.2625 50.8843 22.0569 50.8843 21.5875L50.8999 20.9901ZM54.5621 20.0474C54.6293 20.0224 54.7007 20.0105 54.7724 20.0125H55.0919C55.2422 19.9919 55.3946 20.0295 55.5179 20.1176C55.6411 20.2056 55.7257 20.3374 55.7542 20.4858C55.7542 20.5323 55.7893 20.5595 55.8438 20.5595C55.8614 20.5595 55.8782 20.5525 55.8907 20.5402C55.9031 20.5278 55.9101 20.511 55.9101 20.4935V19.8418C55.9101 19.772 55.8555 19.7526 55.7776 19.7526H53.6115C53.5764 19.7526 53.5608 19.7875 53.5608 19.8224C53.5584 19.8433 53.5638 19.8644 53.576 19.8816C53.5882 19.8988 53.6064 19.9109 53.6271 19.9155C53.853 19.9504 53.9115 19.997 53.927 20.2065C53.927 20.2996 53.927 20.5284 53.927 21.0095V21.5914C53.927 22.0724 53.927 22.2508 53.927 22.3672C53.927 22.5689 53.8374 22.6232 53.6037 22.6543C53.5841 22.658 53.5665 22.6687 53.5544 22.6845C53.5422 22.7002 53.5361 22.7198 53.5374 22.7396C53.5374 22.7823 53.5608 22.8211 53.5998 22.8211H55.8711C55.9295 22.8211 55.988 22.8211 55.9958 22.7319L56.0971 22.053C56.0981 22.0435 56.0972 22.0339 56.0945 22.0248C56.0917 22.0156 56.087 22.0072 56.0808 21.9999C56.0746 21.9926 56.067 21.9867 56.0584 21.9825C56.0498 21.9783 56.0404 21.9759 56.0308 21.9754C56.0087 21.9749 55.987 21.981 55.9683 21.9927C55.9496 22.0044 55.9348 22.0213 55.9256 22.0413C55.8616 22.1986 55.7547 22.3349 55.617 22.435C55.4794 22.5351 55.3164 22.5949 55.1465 22.6077C54.8387 22.6077 54.6088 22.5728 54.5854 22.3866C54.5627 22.1286 54.5549 21.8696 54.5621 21.6107V21.3664C54.6517 21.3664 54.7335 21.3664 54.8309 21.3664C55.0724 21.3664 55.3179 21.3664 55.3724 21.6689C55.3786 21.6918 55.3923 21.7119 55.4114 21.726C55.4305 21.7401 55.4538 21.7473 55.4776 21.7465C55.4894 21.7471 55.5011 21.7452 55.5121 21.7409C55.523 21.7366 55.5329 21.7299 55.541 21.7215C55.5491 21.713 55.5553 21.7029 55.5592 21.6918C55.563 21.6807 55.5645 21.669 55.5633 21.6573C55.5633 21.537 55.536 21.4711 55.536 21.2694C55.536 21.0677 55.5633 20.8814 55.5633 20.8C55.5645 20.7893 55.5633 20.7786 55.5598 20.7684C55.5564 20.7583 55.5507 20.749 55.5433 20.7413C55.5359 20.7335 55.5269 20.7275 55.5169 20.7235C55.5069 20.7196 55.4961 20.7179 55.4854 20.7185C55.4593 20.7161 55.4332 20.7236 55.4123 20.7394C55.3914 20.7552 55.3772 20.7782 55.3724 20.8039C55.3296 21.1297 55.0685 21.1297 54.8192 21.1297C54.7335 21.1297 54.6361 21.1297 54.5621 21.1297V20.0474ZM56.7087 19.7565C56.6464 19.7565 56.6113 19.7797 56.6113 19.8418V20.5827C56.6113 20.6487 56.6581 20.6681 56.7087 20.6681C56.734 20.6673 56.7582 20.6575 56.7768 20.6404C56.7954 20.6233 56.8072 20.6 56.81 20.575C56.8451 20.2491 57.0009 19.997 57.3515 19.9815H57.6749V21.5991C57.6749 22.0801 57.6749 22.2392 57.6515 22.34C57.6515 22.5418 57.5152 22.5844 57.1645 22.6271C57.145 22.6324 57.1278 22.644 57.1158 22.6602C57.1038 22.6764 57.0976 22.6962 57.0983 22.7163C57.0983 22.759 57.1217 22.8017 57.1606 22.8017H58.8086C58.8515 22.8017 58.8709 22.7551 58.8709 22.7125C58.8733 22.693 58.8681 22.6734 58.8566 22.6576C58.845 22.6418 58.8279 22.6309 58.8086 22.6271C58.4697 22.5961 58.3411 22.534 58.3138 22.34C58.3138 22.2353 58.2943 22.0607 58.2943 21.603V19.9659H58.6138C58.7623 19.9777 58.9007 20.0451 59.0012 20.1546C59.1017 20.264 59.1568 20.4073 59.1553 20.5556C59.1552 20.5689 59.158 20.582 59.1634 20.5941C59.1688 20.6063 59.1768 20.6171 59.1867 20.6259C59.1967 20.6347 59.2084 20.6413 59.2211 20.6452C59.2339 20.6492 59.2473 20.6503 59.2605 20.6487C59.2731 20.6499 59.2858 20.6483 59.2977 20.6441C59.3096 20.6398 59.3204 20.633 59.3293 20.6241C59.3383 20.6152 59.3451 20.6044 59.3494 20.5926C59.3536 20.5807 59.3552 20.5681 59.354 20.5556V19.8379C59.3541 19.826 59.3516 19.8143 59.3469 19.8034C59.3421 19.7925 59.335 19.7827 59.3262 19.7747C59.3174 19.7666 59.307 19.7605 59.2957 19.7567C59.2844 19.7529 59.2724 19.7515 59.2605 19.7526L56.7087 19.7565ZM60.215 21.9017C60.2106 21.8756 60.1974 21.8517 60.1776 21.8341C60.1578 21.8165 60.1325 21.8061 60.1059 21.8047C60.0932 21.8052 60.0806 21.8082 60.069 21.8136C60.0573 21.8189 60.0469 21.8265 60.0382 21.8358C60.0295 21.8452 60.0228 21.8562 60.0183 21.8682C60.0139 21.8801 60.0119 21.8928 60.0124 21.9056V22.6814C60.2812 22.7977 60.5728 22.852 60.8656 22.8405C61.4344 22.8405 61.9838 22.5961 61.9838 22.0375C61.9838 21.4789 61.6214 21.3043 61.2046 20.9745C60.7877 20.6448 60.6592 20.5401 60.6592 20.2918C60.6592 20.0435 60.815 19.9465 61.0488 19.9465C61.2825 19.9465 61.5318 20.1134 61.6955 20.5168C61.7266 20.5866 61.7656 20.6177 61.8007 20.6177C61.8238 20.6147 61.8448 20.603 61.8593 20.5849C61.8739 20.5668 61.8808 20.5438 61.8786 20.5207V19.8573C61.6325 19.7526 61.3669 19.7011 61.0994 19.706C60.5812 19.706 60.0748 19.9039 60.0748 20.4819C60.0969 20.6927 60.1711 20.8948 60.2907 21.0701C60.4104 21.2454 60.5718 21.3885 60.7605 21.4866C61.1968 21.797 61.4033 21.9444 61.4033 22.212C61.404 22.2686 61.3923 22.3247 61.3689 22.3764C61.3456 22.428 61.3112 22.4739 61.2681 22.5109C61.225 22.5478 61.1744 22.575 61.1196 22.5904C61.0649 22.6057 61.0075 22.609 60.9514 22.6C60.6202 22.6 60.3319 22.2663 60.215 21.8901V21.9017ZM66.5731 19.7448H65.9498C65.9411 19.7443 65.9324 19.7455 65.9241 19.7483C65.9159 19.7512 65.9083 19.7556 65.9018 19.7614C65.8953 19.7671 65.89 19.7741 65.8862 19.7819C65.8824 19.7897 65.8802 19.7982 65.8797 19.8069C65.883 19.8374 65.8937 19.8667 65.9108 19.8922L66.0394 20.1715L65.307 22.1112C65.1278 22.5767 64.9719 22.6077 64.7888 22.6388C64.7706 22.6416 64.7541 22.6512 64.7425 22.6655C64.731 22.6799 64.7253 22.698 64.7265 22.7163C64.7265 22.74 64.7359 22.7627 64.7527 22.7794C64.7695 22.7962 64.7923 22.8056 64.8161 22.8056H65.7316C65.7427 22.8068 65.7538 22.8055 65.7643 22.8019C65.7748 22.7982 65.7844 22.7923 65.7922 22.7844C65.8001 22.7766 65.8061 22.7671 65.8097 22.7567C65.8134 22.7462 65.8147 22.7351 65.8134 22.7241C65.8149 22.7048 65.8094 22.6857 65.798 22.67C65.7866 22.6544 65.77 22.6433 65.7511 22.6388C65.5875 22.6388 65.5018 22.6388 65.5018 22.5418C65.5017 22.5147 65.5084 22.488 65.5212 22.4642L65.7199 21.8901H66.7368L66.8731 22.2314C66.9135 22.3093 66.9411 22.3931 66.9549 22.4797C66.9549 22.5806 66.8926 22.6271 66.7212 22.6388C66.7023 22.6433 66.6857 22.6544 66.6743 22.67C66.6628 22.6857 66.6574 22.7048 66.6588 22.7241C66.6588 22.7668 66.6822 22.8056 66.7134 22.8056H67.9796C68.0224 22.8056 68.0419 22.7668 68.0419 22.7241C68.0432 22.7043 68.0372 22.6847 68.025 22.6689C68.0128 22.6532 67.9953 22.6425 67.9757 22.6388C67.7965 22.6155 67.6913 22.6 67.438 21.9482L66.5731 19.7448ZM66.2108 20.4974L66.6472 21.6224H65.8173L66.2108 20.4974ZM69.2691 20.9784C69.2691 20.5207 69.2691 20.2957 69.2691 20.2026C69.3003 20.0047 69.3197 19.9465 69.5145 19.9116C69.533 19.9064 69.5492 19.8952 69.5605 19.8797C69.5718 19.8642 69.5776 19.8454 69.5769 19.8263C69.578 19.8171 69.5772 19.8078 69.5746 19.7989C69.5721 19.79 69.5678 19.7817 69.562 19.7745C69.5562 19.7673 69.549 19.7613 69.5409 19.7569C69.5327 19.7524 69.5238 19.7497 69.5145 19.7487H68.3458C68.3029 19.7487 68.2834 19.7875 68.2834 19.8263C68.2818 19.8363 68.2822 19.8465 68.2847 19.8563C68.2872 19.8661 68.2917 19.8753 68.2979 19.8833C68.3041 19.8913 68.3119 19.898 68.3208 19.9028C68.3297 19.9077 68.3395 19.9107 68.3497 19.9116C68.5795 19.9465 68.5951 19.9931 68.6146 20.2026C68.6146 20.2957 68.6146 20.509 68.6146 20.9784V21.8319C68.6146 22.5728 69.1639 22.856 69.8106 22.856C70.5898 22.856 71.0885 22.5728 71.0885 21.7814C71.0885 21.4789 71.0885 20.6177 71.1197 20.2297C71.1197 20.0319 71.1703 19.9737 71.3651 19.9388C71.3836 19.9336 71.3998 19.9223 71.4111 19.9069C71.4224 19.8914 71.4282 19.8726 71.4274 19.8534C71.4285 19.8443 71.4277 19.835 71.4252 19.8261C71.4226 19.8172 71.4183 19.8089 71.4125 19.8017C71.4067 19.7945 71.3996 19.7885 71.3914 19.784C71.3833 19.7796 71.3743 19.7768 71.3651 19.7759H70.3677C70.3585 19.7768 70.3496 19.7796 70.3414 19.784C70.3333 19.7885 70.3261 19.7945 70.3203 19.8017C70.3145 19.8089 70.3102 19.8172 70.3076 19.8261C70.3051 19.835 70.3043 19.8443 70.3054 19.8534C70.3032 19.8734 70.3088 19.8935 70.3212 19.9094C70.3336 19.9254 70.3516 19.9359 70.3716 19.9388C70.6054 19.9737 70.621 20.0202 70.6366 20.2297C70.6366 20.3228 70.6599 20.5362 70.6599 21.0056V21.9482C70.6599 22.3711 70.3677 22.5806 69.9275 22.5806C69.4873 22.5806 69.234 22.3284 69.234 21.8047L69.2691 20.9784ZM72.1443 19.7526C72.0858 19.7526 72.0508 19.7759 72.0508 19.8379V20.5789C72.0508 20.6448 72.0975 20.6642 72.1443 20.6642C72.1703 20.6644 72.1954 20.6549 72.2148 20.6378C72.2342 20.6206 72.2466 20.5968 72.2495 20.5711C72.2806 20.2452 72.4404 19.9931 72.791 19.9776H73.1105V21.5991C73.1105 22.0801 73.1105 22.2392 73.091 22.34C73.091 22.5418 72.9546 22.5844 72.604 22.6271C72.5841 22.6317 72.5665 22.6432 72.5543 22.6595C72.5422 22.6759 72.5363 22.696 72.5378 22.7163C72.5378 22.759 72.5378 22.8017 72.6001 22.8017H74.2481C74.2909 22.8017 74.3104 22.7551 74.3104 22.7125C74.3127 22.693 74.3076 22.6734 74.296 22.6576C74.2845 22.6418 74.2673 22.6309 74.2481 22.6271C73.9091 22.5961 73.7806 22.534 73.7533 22.34C73.7324 22.0949 73.7246 21.8489 73.7299 21.603V19.9659H74.0533C74.2017 19.9777 74.3402 20.0451 74.4407 20.1546C74.5412 20.264 74.5963 20.4073 74.5948 20.5556C74.5947 20.5689 74.5974 20.582 74.6029 20.5941C74.6083 20.6063 74.6162 20.6171 74.6262 20.6259C74.6361 20.6347 74.6479 20.6413 74.6606 20.6452C74.6733 20.6492 74.6868 20.6503 74.7 20.6487C74.7126 20.6499 74.7253 20.6483 74.7371 20.6441C74.749 20.6398 74.7598 20.633 74.7688 20.6241C74.7777 20.6152 74.7846 20.6044 74.7888 20.5926C74.7931 20.5807 74.7947 20.5681 74.7935 20.5556V19.8379C74.7935 19.826 74.7911 19.8143 74.7863 19.8034C74.7815 19.7925 74.7745 19.7827 74.7657 19.7747C74.7569 19.7666 74.7465 19.7605 74.7352 19.7567C74.7239 19.7529 74.7119 19.7515 74.7 19.7526H72.1443ZM78.4751 20.9862C78.4751 20.5284 78.4751 20.2879 78.4946 20.1871C78.5219 19.9931 78.5842 19.9504 78.7751 19.9155C78.794 19.911 78.8106 19.8999 78.822 19.8842C78.8334 19.8686 78.8389 19.8494 78.8374 19.8302C78.8374 19.7914 78.818 19.7526 78.7751 19.7526H77.5284C77.4856 19.7526 77.4661 19.7914 77.4661 19.8302C77.4644 19.8401 77.4649 19.8504 77.4673 19.8602C77.4698 19.87 77.4743 19.8792 77.4805 19.8872C77.4868 19.8952 77.4946 19.9018 77.5035 19.9067C77.5124 19.9116 77.5222 19.9146 77.5323 19.9155C77.7583 19.9504 77.8167 19.9776 77.8323 20.1871C77.8323 20.284 77.8557 20.5129 77.8557 20.9939V21.0948H76.4298V20.9862C76.4298 20.5284 76.4298 20.2879 76.4492 20.1871C76.4804 19.9931 76.5427 19.9504 76.7336 19.9155C76.7518 19.9102 76.7675 19.8988 76.7782 19.8832C76.7888 19.8677 76.7937 19.8489 76.7921 19.8302C76.7921 19.7914 76.7726 19.7526 76.7336 19.7526H75.4831C75.4441 19.7526 75.4246 19.7914 75.4246 19.8302C75.4246 19.869 75.4246 19.9116 75.487 19.9155C75.7168 19.9504 75.7753 19.9776 75.7908 20.1871C75.7908 20.284 75.7908 20.5129 75.7908 20.9939V21.5914C75.7908 22.0724 75.7908 22.2625 75.7908 22.3672C75.7908 22.5689 75.7012 22.6116 75.4675 22.6426C75.4479 22.6464 75.4303 22.6571 75.4182 22.6728C75.406 22.6885 75.3999 22.7082 75.4012 22.728C75.4012 22.7706 75.4246 22.8094 75.4636 22.8094H76.7804C76.8232 22.8094 76.8427 22.7706 76.8427 22.728C76.8442 22.7087 76.8387 22.6895 76.8273 22.6739C76.8159 22.6583 76.7993 22.6472 76.7804 22.6426C76.5739 22.6077 76.4804 22.5612 76.4492 22.3672C76.4492 22.2663 76.4298 22.0607 76.4298 21.5914V21.3741H77.844V21.5875C77.85 21.8463 77.8422 22.1053 77.8206 22.3633C77.8206 22.565 77.731 22.6077 77.5011 22.6388C77.4816 22.6425 77.464 22.6532 77.4518 22.6689C77.4396 22.6847 77.4336 22.7043 77.4349 22.7241C77.4349 22.7668 77.4349 22.8056 77.4972 22.8056H78.8141C78.853 22.8056 78.8764 22.7668 78.8764 22.7241C78.8771 22.705 78.8714 22.6862 78.8601 22.6707C78.8488 22.6552 78.8326 22.644 78.8141 22.6388C78.6076 22.6038 78.5102 22.5573 78.4829 22.3633C78.4829 22.2625 78.4634 22.0569 78.4634 21.5875L78.4751 20.9862ZM79.4608 21.2694C79.4608 21.5763 79.5522 21.8763 79.7234 22.1315C79.8946 22.3866 80.138 22.5855 80.4228 22.703C80.7075 22.8204 81.0209 22.8511 81.3232 22.7913C81.6255 22.7314 81.9031 22.5836 82.1211 22.3666C82.339 22.1496 82.4874 21.8731 82.5476 21.5721C82.6077 21.2711 82.5768 20.9591 82.4589 20.6756C82.3409 20.392 82.1412 20.1497 81.8849 19.9792C81.6286 19.8087 81.3274 19.7177 81.0191 19.7177C80.8129 19.7118 80.6076 19.7479 80.4158 19.8238C80.2241 19.8997 80.0499 20.0137 79.904 20.159C79.7581 20.3043 79.6436 20.4777 79.5673 20.6687C79.4911 20.8596 79.4549 21.064 79.4608 21.2694ZM81.0191 19.9543C81.5918 19.9543 81.8684 20.5439 81.8684 21.3004C81.8684 22.0569 81.5918 22.5728 81.0269 22.5728C80.462 22.5728 80.1893 21.9638 80.1893 21.2345C80.1893 20.5052 80.4503 19.9543 81.0191 19.9543ZM85.067 22.6077C85.1446 22.7097 85.2476 22.7898 85.3658 22.8402C85.484 22.8905 85.6133 22.9093 85.741 22.8948C85.8641 22.8949 85.9869 22.8819 86.1072 22.856C86.1423 22.856 86.1617 22.8288 86.1617 22.8094C86.1614 22.799 86.1579 22.789 86.1516 22.7806C86.1453 22.7723 86.1366 22.7661 86.1267 22.7629C85.9046 22.6698 85.8578 22.6349 85.6085 22.2741L85.0007 21.3819C85.1944 21.3512 85.3712 21.2542 85.5006 21.1076C85.6301 20.961 85.7041 20.774 85.7098 20.5789C85.7098 19.9931 85.1449 19.7526 84.6306 19.7526H83.271C83.232 19.7526 83.2125 19.7914 83.2125 19.8302C83.2109 19.8401 83.2113 19.8504 83.2138 19.8602C83.2163 19.87 83.2208 19.8792 83.227 19.8872C83.2332 19.8952 83.241 19.9018 83.2499 19.9067C83.2588 19.9116 83.2686 19.9146 83.2788 19.9155C83.5047 19.9504 83.5632 19.997 83.5788 20.2065C83.5788 20.2996 83.5982 20.5129 83.5982 20.9823V21.5797C83.5982 22.0607 83.5982 22.2508 83.5788 22.3556C83.5788 22.5573 83.4891 22.6 83.2554 22.631C83.2358 22.6347 83.2182 22.6455 83.2061 22.6612C83.1939 22.6769 83.1879 22.6965 83.1892 22.7163C83.1892 22.759 83.2125 22.7978 83.2515 22.7978H84.5761C84.6189 22.7978 84.6384 22.759 84.6384 22.7163C84.6399 22.6971 84.6344 22.6779 84.623 22.6623C84.6116 22.6466 84.595 22.6355 84.5761 22.631C84.3813 22.6 84.2683 22.5534 84.2488 22.4176C84.2182 22.094 84.2091 21.7687 84.2216 21.4439V19.9931C84.2898 19.973 84.3608 19.9639 84.4319 19.9659C84.5135 19.967 84.5939 19.9851 84.6679 20.0191C84.7419 20.0532 84.8079 20.1023 84.8615 20.1635C84.9152 20.2246 84.9553 20.2963 84.9793 20.3739C85.0033 20.4514 85.0106 20.5332 85.0007 20.6138C85.0007 21.0987 84.7241 21.281 84.4514 21.281C84.3852 21.281 84.3151 21.281 84.3151 21.3353C84.3151 21.3896 84.3384 21.4245 84.4242 21.5603L85.067 22.6077ZM87.7941 20.9901C87.7941 20.5323 87.7941 20.2996 87.8136 20.2142C87.8409 20.0164 87.9032 19.9582 88.0941 19.9233C88.1126 19.9195 88.1292 19.9092 88.1407 19.8942C88.1521 19.8792 88.1578 19.8606 88.1564 19.8418C88.1575 19.8328 88.1567 19.8237 88.1541 19.8151C88.1515 19.8064 88.1472 19.7984 88.1413 19.7915C88.1355 19.7846 88.1283 19.7789 88.1201 19.7749C88.112 19.7709 88.1032 19.7686 88.0941 19.7681H86.8474C86.8383 19.7686 86.8295 19.7709 86.8214 19.7749C86.8132 19.7789 86.806 19.7846 86.8002 19.7915C86.7943 19.7984 86.79 19.8064 86.7874 19.8151C86.7848 19.8237 86.784 19.8328 86.7851 19.8418C86.784 19.8515 86.7849 19.8613 86.7876 19.8707C86.7904 19.88 86.795 19.8887 86.8011 19.8963C86.8073 19.9039 86.8149 19.9102 86.8235 19.9148C86.8321 19.9194 86.8416 19.9223 86.8513 19.9233C87.0773 19.9582 87.1357 20.0009 87.1513 20.2142C87.1513 20.3073 87.1747 20.5284 87.1747 20.9901V21.5875C87.1747 22.0685 87.1747 22.2586 87.1513 22.3633C87.1513 22.565 87.0617 22.6077 86.8318 22.6388C86.8122 22.6425 86.7947 22.6532 86.7825 22.6689C86.7703 22.6847 86.7643 22.7043 86.7656 22.7241C86.7656 22.7668 86.7851 22.8056 86.8279 22.8056H88.1175C88.1564 22.8056 88.1798 22.7668 88.1798 22.7241C88.1805 22.705 88.1748 22.6862 88.1635 22.6707C88.1522 22.6552 88.136 22.644 88.1175 22.6388C87.911 22.6038 87.8136 22.5573 87.7863 22.3633C87.7863 22.2625 87.7668 22.0569 87.7668 21.5875L87.7941 20.9901ZM88.8967 19.7526C88.8382 19.7526 88.8032 19.7759 88.8032 19.8379V20.5789C88.8032 20.6448 88.8499 20.6642 88.8967 20.6642C88.9226 20.6644 88.9478 20.6549 88.9672 20.6378C88.9866 20.6206 88.9989 20.5968 89.0018 20.5711C89.033 20.2452 89.1927 19.9931 89.5434 19.9776H89.8667V21.5991C89.8667 22.0801 89.8667 22.2392 89.8434 22.34C89.8434 22.5418 89.707 22.5844 89.3564 22.6271C89.3365 22.6317 89.3188 22.6432 89.3067 22.6595C89.2946 22.6759 89.2887 22.696 89.2901 22.7163C89.2901 22.759 89.3096 22.8017 89.3525 22.8017H91.0004C91.0433 22.8017 91.0628 22.7551 91.0628 22.7125C91.0651 22.693 91.06 22.6734 91.0484 22.6576C91.0369 22.6418 91.0197 22.6309 91.0004 22.6271C90.6615 22.5961 90.5329 22.534 90.5057 22.34C90.5057 22.2353 90.4862 22.0607 90.4862 21.603V19.9659H90.8056C90.9541 19.9777 91.0925 20.0451 91.193 20.1546C91.2935 20.264 91.3486 20.4073 91.3472 20.5556C91.3471 20.5689 91.3498 20.582 91.3552 20.5941C91.3606 20.6063 91.3686 20.6171 91.3785 20.6259C91.3885 20.6347 91.4003 20.6413 91.413 20.6452C91.4257 20.6492 91.4391 20.6503 91.4524 20.6487C91.4649 20.6499 91.4776 20.6483 91.4895 20.6441C91.5014 20.6398 91.5122 20.633 91.5211 20.6241C91.5301 20.6152 91.5369 20.6044 91.5412 20.5926C91.5455 20.5807 91.5471 20.5681 91.5459 20.5556V19.8379C91.5459 19.826 91.5435 19.8143 91.5387 19.8034C91.5339 19.7925 91.5269 19.7827 91.5181 19.7747C91.5093 19.7666 91.4989 19.7605 91.4876 19.7567C91.4762 19.7529 91.4643 19.7515 91.4524 19.7526H88.8967ZM93.934 21.7504C93.9308 21.6161 93.9602 21.483 94.0198 21.3625L94.4678 20.4392C94.6782 20.0009 94.8028 19.9504 95.0171 19.9078C95.0346 19.9035 95.0503 19.8935 95.0615 19.8795C95.0728 19.8655 95.0791 19.8481 95.0794 19.8302C95.0795 19.8203 95.0775 19.8105 95.0735 19.8015C95.0695 19.7925 95.0636 19.7844 95.0562 19.7778C95.0489 19.7712 95.0402 19.7663 95.0308 19.7632C95.0213 19.7602 95.0114 19.7592 95.0015 19.7603H94.0042C93.995 19.7592 93.9857 19.76 93.9769 19.7629C93.9682 19.7657 93.9601 19.7705 93.9534 19.7768C93.9467 19.7831 93.9415 19.7908 93.9381 19.7994C93.9348 19.8079 93.9334 19.8171 93.934 19.8263C93.934 19.8483 93.9425 19.8694 93.9578 19.8853C93.973 19.9012 93.9938 19.9106 94.0159 19.9116C94.1834 19.9116 94.2925 19.9465 94.2925 20.0241C94.2923 20.0524 94.2856 20.0803 94.273 20.1056L93.7704 21.2694L93.3107 20.35C93.2586 20.2649 93.2254 20.1696 93.2133 20.0707C93.2133 19.9737 93.2951 19.9349 93.5094 19.9233C93.5191 19.9223 93.5286 19.9194 93.5372 19.9148C93.5458 19.9102 93.5534 19.9039 93.5596 19.8963C93.5658 19.8887 93.5703 19.88 93.5731 19.8707C93.5758 19.8613 93.5767 19.8515 93.5756 19.8418C93.5756 19.8108 93.5756 19.7759 93.5211 19.7759H92.1887C92.1497 19.7759 92.1341 19.8108 92.1341 19.8418C92.1331 19.8515 92.1339 19.8613 92.1367 19.8707C92.1394 19.88 92.144 19.8887 92.1502 19.8963C92.1563 19.9039 92.164 19.9102 92.1726 19.9148C92.1812 19.9194 92.1906 19.9223 92.2004 19.9233C92.3406 19.9233 92.3757 19.9815 92.6172 20.4043L93.3146 21.6379V21.8319C93.3184 22.021 93.3106 22.2101 93.2912 22.3982C93.264 22.5728 93.112 22.6 92.8237 22.6388C92.8031 22.6434 92.7849 22.6555 92.7727 22.6727C92.7605 22.6899 92.755 22.7109 92.7575 22.7319C92.7575 22.7668 92.7575 22.7978 92.812 22.7978H94.4522C94.4873 22.7978 94.5029 22.7668 94.5029 22.7319C94.5053 22.7109 94.4999 22.6899 94.4877 22.6727C94.4754 22.6555 94.4573 22.6434 94.4366 22.6388C94.1639 22.6 93.9769 22.5612 93.9535 22.4099C93.9302 22.2586 93.9535 22.0452 93.9535 21.7465" fill="white"/>
<path d="M15.755 27.0262C15.7861 27.3731 15.7965 27.7216 15.7862 28.0697V28.6749C15.7862 29.1598 15.7862 29.3577 15.7628 29.4779C15.7394 29.5982 15.5875 29.6796 15.2953 29.7184C15.2758 29.7245 15.259 29.7371 15.2476 29.754C15.2363 29.771 15.2311 29.7913 15.233 29.8115C15.233 29.8464 15.233 29.8775 15.2836 29.8775H16.7212C16.7601 29.8775 16.7757 29.8464 16.7757 29.8115C16.7773 29.7908 16.7716 29.7701 16.7595 29.7531C16.7474 29.7361 16.7297 29.7238 16.7095 29.7184C16.4368 29.6796 16.2459 29.6486 16.2264 29.4895C16.2044 29.2199 16.1966 28.9493 16.203 28.6788V28.0659C16.203 27.5926 16.203 27.131 16.2264 27.0301H16.7251C16.99 27.0301 17.1419 27.2861 17.177 27.612C17.177 27.6225 17.1791 27.6329 17.1833 27.6426C17.1874 27.6523 17.1935 27.661 17.2012 27.6683C17.2088 27.6755 17.2179 27.6812 17.2278 27.6848C17.2377 27.6885 17.2483 27.6901 17.2588 27.6896C17.2684 27.6901 17.2779 27.6887 17.2869 27.6854C17.2958 27.6821 17.304 27.6771 17.3109 27.6705C17.3179 27.664 17.3234 27.6561 17.3272 27.6474C17.3309 27.6387 17.3329 27.6292 17.3328 27.6197V26.9448C17.3328 26.8284 17.2861 26.8167 17.251 26.8167H14.7343C14.6992 26.8167 14.6525 26.8167 14.6525 26.9448V27.6508C14.6525 27.6603 14.6544 27.6697 14.6582 27.6784C14.6619 27.6872 14.6674 27.695 14.6744 27.7016C14.6813 27.7081 14.6895 27.7132 14.6985 27.7164C14.7074 27.7197 14.717 27.7211 14.7265 27.7206C14.737 27.7211 14.7476 27.7195 14.7575 27.7159C14.7674 27.7122 14.7765 27.7066 14.7841 27.6993C14.7918 27.692 14.7979 27.6833 14.802 27.6736C14.8062 27.664 14.8083 27.6535 14.8083 27.643C14.8434 27.3172 14.9953 27.0728 15.2602 27.0611L15.755 27.0262ZM18.8951 27.065C18.9633 27.0447 19.0343 27.0355 19.1055 27.0379H19.6353C19.8963 27.0379 20.0522 27.2163 20.0834 27.5422C20.0844 27.5631 20.0934 27.5828 20.1087 27.5973C20.1239 27.6117 20.1441 27.6198 20.1652 27.6197C20.1747 27.6203 20.1842 27.6189 20.1932 27.6156C20.2022 27.6123 20.2104 27.6073 20.2173 27.6007C20.2242 27.5942 20.2297 27.5863 20.2335 27.5776C20.2373 27.5688 20.2392 27.5594 20.2392 27.5499V26.968C20.2392 26.871 20.2158 26.8284 20.1184 26.8284H18.1159C18.0809 26.8284 18.0653 26.8633 18.0653 26.8943C18.0641 26.9137 18.0702 26.9328 18.0825 26.9479C18.0947 26.963 18.1122 26.9729 18.1315 26.9758C18.4198 27.0185 18.4393 27.0689 18.4549 27.2745C18.4754 27.5326 18.4832 27.7915 18.4782 28.0503V28.6516C18.4848 28.9105 18.477 29.1695 18.4549 29.4275C18.4549 29.6331 18.4003 29.6874 18.1081 29.7301C18.0889 29.7329 18.0714 29.7429 18.0591 29.758C18.0469 29.7731 18.0407 29.7922 18.0419 29.8115C18.0408 29.8274 18.0458 29.8431 18.056 29.8553C18.0661 29.8676 18.0806 29.8755 18.0964 29.8775H20.2002C20.2587 29.8775 20.3132 29.8775 20.3249 29.7921L20.4223 29.1327C20.4223 29.0822 20.4223 29.0589 20.3639 29.0589C20.3453 29.0591 20.3273 29.0652 20.3126 29.0764C20.2978 29.0876 20.2871 29.1033 20.282 29.121C20.2443 29.2792 20.1526 29.4194 20.0225 29.5177C19.8925 29.6161 19.7323 29.6664 19.5691 29.6602C19.0977 29.6602 18.9419 29.6331 18.9146 29.4236C18.9146 29.3266 18.8951 29.1327 18.8951 28.6477V28.4266C18.9964 28.4266 19.1094 28.4266 19.234 28.4266C19.6236 28.4266 19.8067 28.4266 19.8496 28.737C19.8525 28.7562 19.8625 28.7736 19.8776 28.7858C19.8928 28.798 19.912 28.8041 19.9314 28.8029C19.9473 28.804 19.9631 28.799 19.9754 28.7889C19.9877 28.7788 19.9957 28.7644 19.9976 28.7486C19.9976 28.6633 19.9704 28.5779 19.9704 28.3607C19.9704 28.1434 19.9976 28.0154 19.9976 27.8952C19.9957 27.8794 19.9877 27.865 19.9754 27.8549C19.9631 27.8448 19.9473 27.8397 19.9314 27.8409C19.912 27.8397 19.8928 27.8458 19.8776 27.858C19.8625 27.8702 19.8525 27.8876 19.8496 27.9068C19.7873 28.2443 19.6275 28.2443 19.2224 28.2443C19.1134 28.2509 19.0041 28.2509 18.8951 28.2443V27.065ZM24.5091 29.862C24.5091 29.8969 24.552 29.924 24.5753 29.924C24.5987 29.924 24.6299 29.9008 24.6532 29.8387L25.6623 27.4685L25.8298 29.3421C25.8298 29.5904 25.7792 29.6874 25.4909 29.7301C25.4716 29.7329 25.4541 29.7429 25.4418 29.758C25.4296 29.7731 25.4234 29.7922 25.4246 29.8115C25.4246 29.8426 25.4246 29.8775 25.4792 29.8775H26.6479C26.6869 29.8775 26.7025 29.8426 26.7025 29.8115C26.7037 29.7922 26.6975 29.7731 26.6853 29.758C26.673 29.7429 26.6555 29.7329 26.6363 29.7301C26.3635 29.6874 26.2934 29.5904 26.2739 29.3421L26.0986 27.3172C26.0986 27.1077 26.1532 26.9874 26.422 26.9835C26.4648 26.9835 26.4843 26.9486 26.4843 26.9098C26.4843 26.871 26.4843 26.84 26.4298 26.84H25.7246C25.6701 26.84 25.6389 26.8594 25.6311 26.8827L24.6688 29.2102L23.6715 26.8827C23.6643 26.867 23.6528 26.8535 23.6383 26.844C23.6239 26.8344 23.607 26.829 23.5897 26.8284H22.8806C22.8494 26.8284 22.8339 26.8633 22.8339 26.8943C22.8328 26.903 22.8334 26.9118 22.8358 26.9202C22.8381 26.9286 22.8422 26.9365 22.8476 26.9433C22.853 26.9502 22.8598 26.9559 22.8675 26.9601C22.8751 26.9644 22.8836 26.9671 22.8923 26.968C23.1533 26.968 23.239 27.1077 23.2196 27.3133L23.0209 29.3964C23.0209 29.602 22.9507 29.6874 22.6624 29.7301C22.6432 29.7329 22.6257 29.7429 22.6134 29.758C22.6012 29.7731 22.595 29.7922 22.5962 29.8115C22.5962 29.8426 22.5962 29.8775 22.6507 29.8775H23.6754C23.6912 29.8755 23.7057 29.8676 23.7159 29.8553C23.726 29.8431 23.731 29.8274 23.7299 29.8115C23.7311 29.7922 23.725 29.7731 23.7127 29.758C23.7004 29.7429 23.683 29.7329 23.6637 29.7301C23.4104 29.6913 23.3131 29.6176 23.3131 29.4391V29.3964L23.4533 27.484L24.5091 29.862ZM29.1024 26.8284H28.6738C28.6193 26.8284 28.5998 26.871 28.6193 26.9176L28.7517 27.2163L27.8674 29.3577C27.7466 29.6641 27.6687 29.6874 27.4505 29.7456C27.4334 29.75 27.4182 29.7601 27.4076 29.7742C27.397 29.7883 27.3915 29.8055 27.3921 29.8232C27.392 29.833 27.394 29.8428 27.398 29.8518C27.402 29.8608 27.4079 29.8689 27.4153 29.8755C27.4226 29.8821 27.4313 29.8871 27.4407 29.8901C27.4502 29.8931 27.4601 29.8941 27.47 29.893H28.405C28.4142 29.8942 28.4235 29.8933 28.4322 29.8905C28.441 29.8876 28.449 29.8829 28.4557 29.8766C28.4625 29.8702 28.4677 29.8625 28.471 29.854C28.4744 29.8454 28.4758 29.8362 28.4751 29.827C28.4766 29.8088 28.4716 29.7906 28.4609 29.7757C28.4502 29.7608 28.4345 29.7501 28.4167 29.7456C28.1985 29.7184 28.0661 29.6835 28.0661 29.5904C28.0615 29.5752 28.0615 29.559 28.0661 29.5439L28.2959 28.9775H29.4842L29.6166 29.2995C29.6536 29.3776 29.676 29.4617 29.6829 29.5477C29.6829 29.6758 29.5855 29.7262 29.3439 29.7456C29.3342 29.7465 29.3247 29.7494 29.3161 29.7541C29.3075 29.7587 29.2999 29.765 29.2937 29.7725C29.2876 29.7801 29.283 29.7888 29.2802 29.7982C29.2775 29.8076 29.2766 29.8174 29.2777 29.827C29.2777 29.8581 29.2777 29.893 29.3322 29.893H30.501C30.5168 29.891 30.5313 29.8831 30.5415 29.8708C30.5516 29.8586 30.5567 29.8429 30.5555 29.827C30.5567 29.8077 30.5506 29.7886 30.5383 29.7735C30.5261 29.7584 30.5086 29.7485 30.4893 29.7456C30.2478 29.7107 30.275 29.6796 29.7647 28.4383L29.1024 26.8284ZM28.9193 27.4452L29.4218 28.737H28.405L28.9193 27.4452ZM33.9839 29.8969C33.9949 29.9103 34.0085 29.9213 34.0239 29.9293C34.0393 29.9373 34.0562 29.9421 34.0735 29.9434C34.1125 29.9434 34.1476 29.9124 34.1476 29.8426V28.0581C34.1425 27.7992 34.1516 27.5402 34.1748 27.2822C34.206 27.0728 34.206 27.0262 34.4787 26.9835C34.4983 26.9798 34.5158 26.9691 34.528 26.9533C34.5402 26.9376 34.5462 26.918 34.5449 26.8982C34.5461 26.8823 34.541 26.8667 34.5309 26.8544C34.5207 26.8421 34.5062 26.8342 34.4904 26.8323H33.4969C33.4619 26.8323 33.4463 26.8672 33.4463 26.8982C33.445 26.918 33.451 26.9376 33.4632 26.9533C33.4754 26.9691 33.4929 26.9798 33.5125 26.9835C33.8008 27.0262 33.8203 27.0766 33.8359 27.2822C33.8589 27.5402 33.868 27.7992 33.8632 28.0581V29.0667L31.9814 26.8206H31.4126C31.3776 26.8206 31.3542 26.84 31.3542 26.8672C31.3591 26.8952 31.3727 26.921 31.3932 26.9409L31.6698 27.2357C31.6698 27.3366 31.6698 27.5771 31.6698 28.0581V28.6594C31.6698 29.1443 31.6698 29.3227 31.6698 29.4352C31.6698 29.6408 31.6113 29.6951 31.323 29.7378C31.3038 29.7407 31.2863 29.7507 31.274 29.7657C31.2617 29.7808 31.2556 29.7999 31.2568 29.8193C31.2568 29.8503 31.2568 29.8852 31.3113 29.8852H32.3632C32.4022 29.8852 32.4178 29.8503 32.4178 29.8193C32.419 29.7999 32.4128 29.7808 32.4006 29.7657C32.3883 29.7507 32.3708 29.7407 32.3515 29.7378C32.0788 29.6951 32.0087 29.6176 31.962 29.4081C31.962 29.3072 31.962 29.1288 31.9425 28.6322V27.4685L33.9839 29.8969ZM36.7344 26.8284H36.302C36.2914 26.8282 36.281 26.8308 36.2718 26.836C36.2627 26.8412 36.2551 26.8488 36.2499 26.8579C36.2447 26.8671 36.2421 26.8774 36.2423 26.888C36.2426 26.8985 36.2457 26.9087 36.2513 26.9176L36.3799 27.2163L35.5228 29.3577C35.3981 29.6641 35.3202 29.6874 35.1059 29.7456C35.0881 29.7492 35.0721 29.759 35.0607 29.7731C35.0493 29.7873 35.0432 29.805 35.0436 29.8232C35.0435 29.833 35.0456 29.8428 35.0496 29.8518C35.0536 29.8608 35.0595 29.8689 35.0668 29.8755C35.0742 29.8821 35.0829 29.8871 35.0923 29.8901C35.1017 29.8931 35.1117 29.8941 35.1215 29.893H36.0565C36.0657 29.8942 36.075 29.8933 36.0838 29.8905C36.0926 29.8876 36.1006 29.8829 36.1073 29.8766C36.114 29.8702 36.1192 29.8625 36.1226 29.854C36.1259 29.8454 36.1273 29.8362 36.1267 29.827C36.1267 29.7883 36.1033 29.7495 36.0721 29.7456C35.8501 29.7184 35.7215 29.6835 35.7215 29.5904C35.7183 29.5751 35.7183 29.5592 35.7215 29.5439L35.9514 28.9775H37.1396L37.2721 29.2995C37.309 29.3776 37.3315 29.4617 37.3383 29.5477C37.3383 29.6758 37.2409 29.7262 36.9994 29.7456C36.9801 29.7485 36.9626 29.7584 36.9503 29.7735C36.9381 29.7886 36.9319 29.8077 36.9331 29.827C36.932 29.8429 36.937 29.8586 36.9472 29.8708C36.9573 29.8831 36.9718 29.891 36.9877 29.893H38.1564C38.1723 29.891 38.1868 29.8831 38.1969 29.8708C38.2071 29.8586 38.2121 29.8429 38.211 29.827C38.2122 29.8077 38.206 29.7886 38.1938 29.7735C38.1815 29.7584 38.164 29.7485 38.1447 29.7456C37.9032 29.7107 37.9344 29.6796 37.4201 28.4383L36.7344 26.8284ZM36.5474 27.4452L37.0812 28.737H36.0643L36.5474 27.4452ZM41.5653 27.0262C41.5965 27.3731 41.6069 27.7216 41.5965 28.0697V28.6749C41.6035 28.9428 41.5957 29.2109 41.5731 29.4779C41.5731 29.6408 41.3978 29.6796 41.1095 29.7184C41.0893 29.7238 41.0716 29.7361 41.0595 29.7531C41.0474 29.7701 41.0417 29.7908 41.0433 29.8115C41.0433 29.8464 41.0433 29.8775 41.0939 29.8775H42.5354C42.5744 29.8775 42.59 29.8464 42.59 29.8115C42.5916 29.7908 42.5859 29.7701 42.5738 29.7531C42.5617 29.7361 42.544 29.7238 42.5237 29.7184C42.251 29.6796 42.0601 29.6486 42.0406 29.4895C42.0187 29.2199 42.0109 28.9493 42.0173 28.6788V28.0659C42.0173 27.5926 42.0173 27.131 42.0406 27.0301H42.5393C42.8042 27.0301 42.9562 27.2861 42.9912 27.612C42.9923 27.6329 43.0013 27.6526 43.0165 27.6671C43.0318 27.6815 43.052 27.6896 43.0731 27.6896C43.0826 27.6901 43.0921 27.6887 43.1011 27.6854C43.1101 27.6821 43.1183 27.6771 43.1252 27.6705C43.1321 27.664 43.1376 27.6561 43.1414 27.6474C43.1452 27.6387 43.1471 27.6292 43.1471 27.6197V26.9448C43.1471 26.8284 43.1042 26.8167 43.0653 26.8167H40.5485C40.5135 26.8167 40.4667 26.8167 40.4667 26.9448V27.6508C40.4667 27.6603 40.4686 27.6697 40.4724 27.6784C40.4762 27.6872 40.4817 27.695 40.4886 27.7016C40.4955 27.7081 40.5037 27.7132 40.5127 27.7164C40.5217 27.7197 40.5312 27.7211 40.5407 27.7206C40.5513 27.7211 40.5618 27.7195 40.5717 27.7159C40.5816 27.7122 40.5907 27.7066 40.5984 27.6993C40.606 27.692 40.6121 27.6833 40.6163 27.6736C40.6204 27.664 40.6226 27.6535 40.6225 27.643C40.6576 27.3172 40.8095 27.0728 41.0745 27.0611L41.5653 27.0262ZM45.2002 26.8284H44.7717C44.7171 26.8284 44.6977 26.871 44.7171 26.9176L44.8496 27.2163L43.9691 29.3577C43.8444 29.6641 43.7665 29.6874 43.5484 29.7456C43.5312 29.75 43.5161 29.7601 43.5055 29.7742C43.4948 29.7883 43.4894 29.8055 43.4899 29.8232C43.4899 29.833 43.4919 29.8428 43.4959 29.8518C43.4999 29.8608 43.5058 29.8689 43.5131 29.8755C43.5205 29.8821 43.5292 29.8871 43.5386 29.8901C43.548 29.8931 43.558 29.8941 43.5678 29.893H44.5029C44.512 29.8942 44.5213 29.8933 44.5301 29.8905C44.5389 29.8876 44.5469 29.8829 44.5536 29.8766C44.5603 29.8702 44.5655 29.8625 44.5689 29.854C44.5722 29.8454 44.5736 29.8362 44.573 29.827C44.573 29.7883 44.5496 29.7495 44.5184 29.7456C44.2964 29.7184 44.1639 29.6835 44.1639 29.5904C44.1594 29.5752 44.1594 29.559 44.1639 29.5439L44.3938 28.9775H45.5625L45.695 29.2995C45.732 29.3776 45.7544 29.4617 45.7612 29.5477C45.7612 29.6758 45.6638 29.7262 45.4223 29.7456C45.403 29.7485 45.3855 29.7584 45.3733 29.7735C45.361 29.7886 45.3549 29.8077 45.3561 29.827C45.3561 29.8581 45.3561 29.893 45.4106 29.893H46.5794C46.5952 29.891 46.6097 29.8831 46.6199 29.8708C46.63 29.8586 46.635 29.8429 46.6339 29.827C46.6351 29.8077 46.629 29.7886 46.6167 29.7735C46.6044 29.7584 46.587 29.7485 46.5677 29.7456C46.3261 29.7107 46.3573 29.6796 45.8431 28.4383L45.2002 26.8284ZM45.0171 27.4452L45.5197 28.737H44.5029L45.0171 27.4452ZM45.4729 26.5064C45.4876 26.5064 45.5021 26.5035 45.5156 26.4978C45.5291 26.4921 45.5413 26.4837 45.5515 26.4732C45.5617 26.4627 45.5696 26.4503 45.5749 26.4367C45.5801 26.423 45.5825 26.4085 45.582 26.3939C45.5816 26.3784 45.5779 26.3632 45.5713 26.3492C45.5647 26.3352 45.5552 26.3227 45.5435 26.3125C45.5318 26.3023 45.5181 26.2946 45.5033 26.2899C45.4885 26.2853 45.4728 26.2837 45.4574 26.2853H44.5964C44.5705 26.2901 44.5471 26.3038 44.5303 26.324C44.5135 26.3442 44.5043 26.3696 44.5043 26.3958C44.5043 26.4221 44.5135 26.4475 44.5303 26.4677C44.5471 26.4878 44.5705 26.5015 44.5964 26.5064H45.4729ZM48.091 27.0262C48.1221 27.3731 48.1325 27.7216 48.1221 28.0697V28.6749C48.1221 29.1598 48.1221 29.3577 48.1027 29.4779C48.0832 29.5982 47.9235 29.6796 47.6352 29.7184C47.6149 29.7238 47.5972 29.7361 47.5851 29.7531C47.5731 29.7701 47.5673 29.7908 47.5689 29.8115C47.5689 29.8464 47.5689 29.8775 47.6235 29.8775H49.0572C49.0961 29.8775 49.1117 29.8464 49.1117 29.8115C49.1133 29.7908 49.1076 29.7701 49.0955 29.7531C49.0834 29.7361 49.0657 29.7238 49.0455 29.7184C48.7728 29.6796 48.5858 29.6486 48.5624 29.4895C48.5404 29.2199 48.5326 28.9493 48.539 28.6788V28.0659C48.539 27.5926 48.539 27.131 48.5624 27.0301H49.065C49.326 27.0301 49.4818 27.2861 49.513 27.612C49.514 27.6329 49.523 27.6526 49.5383 27.6671C49.5535 27.6815 49.5738 27.6896 49.5948 27.6896C49.6043 27.6901 49.6139 27.6887 49.6228 27.6854C49.6318 27.6821 49.64 27.6771 49.6469 27.6705C49.6539 27.664 49.6594 27.6561 49.6631 27.6474C49.6669 27.6387 49.6688 27.6292 49.6688 27.6197V26.9448C49.6688 26.8284 49.626 26.8167 49.587 26.8167H47.0742C47.0352 26.8167 46.9884 26.8167 46.9884 26.9448V27.6508C46.9884 27.6603 46.9904 27.6697 46.9941 27.6784C46.9979 27.6872 47.0034 27.695 47.0103 27.7016C47.0173 27.7081 47.0255 27.7132 47.0344 27.7164C47.0434 27.7197 47.0529 27.7211 47.0625 27.7206C47.0732 27.7211 47.084 27.7195 47.0941 27.7159C47.1042 27.7123 47.1135 27.7067 47.1215 27.6995C47.1294 27.6923 47.1359 27.6836 47.1405 27.6739C47.1451 27.6642 47.1477 27.6537 47.1482 27.643C47.1793 27.3172 47.3313 27.0728 47.5962 27.0611L48.091 27.0262ZM51.7298 26.8284H51.2973C51.2868 26.8282 51.2763 26.8308 51.2672 26.836C51.258 26.8412 51.2504 26.8488 51.2452 26.8579C51.24 26.8671 51.2374 26.8774 51.2377 26.888C51.2379 26.8985 51.241 26.9087 51.2467 26.9176L51.3791 27.2163L50.4948 29.3577C50.3701 29.6641 50.2922 29.6874 50.0779 29.7456C50.06 29.7492 50.044 29.759 50.0326 29.7731C50.0212 29.7873 50.0152 29.805 50.0156 29.8232C50.0155 29.833 50.0175 29.8428 50.0215 29.8518C50.0255 29.8608 50.0314 29.8689 50.0388 29.8755C50.0461 29.8821 50.0548 29.8871 50.0642 29.8901C50.0737 29.8931 50.0836 29.8941 50.0935 29.893H51.0324C51.0414 29.8935 51.0504 29.8922 51.0589 29.8891C51.0674 29.8861 51.0752 29.8813 51.0818 29.8751C51.0883 29.8689 51.0936 29.8615 51.0971 29.8532C51.1007 29.8449 51.1025 29.836 51.1025 29.827C51.1033 29.8089 51.0979 29.7911 51.0873 29.7763C51.0768 29.7616 51.0615 29.7507 51.0441 29.7456C50.8259 29.7184 50.6934 29.6835 50.6934 29.5904C50.6903 29.5751 50.6903 29.5592 50.6934 29.5439L50.9233 28.9775H52.0921L52.2245 29.2995C52.2615 29.3776 52.2839 29.4617 52.2908 29.5477C52.2908 29.6758 52.1934 29.7262 51.9518 29.7456C51.9325 29.7485 51.9151 29.7584 51.9028 29.7735C51.8905 29.7886 51.8844 29.8077 51.8856 29.827C51.8845 29.8429 51.8895 29.8586 51.8997 29.8708C51.9098 29.8831 51.9243 29.891 51.9401 29.893H53.1089C53.1247 29.891 53.1392 29.8831 53.1494 29.8708C53.1595 29.8586 53.1646 29.8429 53.1634 29.827C53.1646 29.8077 53.1585 29.7886 53.1462 29.7735C53.134 29.7584 53.1165 29.7485 53.0972 29.7456C52.8557 29.7107 52.8868 29.6796 52.3726 28.4383L51.7298 26.8284ZM51.5427 27.4452L52.0453 28.737H51.0324L51.5427 27.4452ZM54.753 28.0736C54.753 27.6042 54.753 27.3715 54.7725 27.2745C54.7997 27.065 54.7997 27.0185 55.0724 26.9758C55.0917 26.9729 55.1092 26.963 55.1215 26.9479C55.1337 26.9328 55.1399 26.9137 55.1387 26.8943C55.1387 26.8633 55.1387 26.8284 55.0841 26.8284H53.9738C53.9387 26.8284 53.9231 26.8633 53.9231 26.8943C53.9218 26.9131 53.9274 26.9318 53.9389 26.9467C53.9504 26.9617 53.9669 26.9721 53.9855 26.9758C54.2777 27.0185 54.2971 27.0689 54.3127 27.2745C54.3127 27.3715 54.3361 27.6042 54.3361 28.0853V28.6555C54.3361 29.1404 54.3361 29.3305 54.3127 29.4314C54.3127 29.637 54.2543 29.6913 53.966 29.7339C53.9467 29.7368 53.9292 29.7468 53.917 29.7619C53.9047 29.7769 53.8986 29.796 53.8998 29.8154C53.8998 29.8464 53.8998 29.8814 53.9543 29.8814H55.1231C55.162 29.8814 55.1776 29.8464 55.1776 29.8154C55.1788 29.796 55.1727 29.7769 55.1604 29.7619C55.1482 29.7468 55.1307 29.7368 55.1114 29.7339C54.8387 29.6913 54.788 29.6408 54.7608 29.4314C54.7608 29.3344 54.7413 29.1404 54.7413 28.6555L54.753 28.0736ZM60.7916 28.0736C60.7916 27.6003 60.7916 27.387 60.8111 27.2978C60.8423 27.0883 60.8423 27.0417 61.1111 26.9991C61.1304 26.9962 61.1478 26.9862 61.1601 26.9711C61.1724 26.9561 61.1785 26.937 61.1773 26.9176C61.1773 26.8866 61.1773 26.8516 61.1267 26.8516H60.0124C59.9774 26.8516 59.9618 26.8866 59.9618 26.9176C59.9606 26.937 59.9667 26.9561 59.979 26.9711C59.9913 26.9862 60.0088 26.9962 60.028 26.9991C60.3163 27.0417 60.3358 27.0922 60.3514 27.2978C60.3719 27.5558 60.3797 27.8148 60.3748 28.0736V28.1784H58.7034V28.0659C58.6961 27.807 58.7039 27.548 58.7268 27.29C58.7541 27.0805 58.7541 27.034 59.0268 26.9913C59.046 26.9884 59.0635 26.9785 59.0758 26.9634C59.0881 26.9483 59.0942 26.9292 59.093 26.9098C59.093 26.8788 59.093 26.8439 59.0385 26.8439H57.9281C57.8892 26.8439 57.8736 26.8788 57.8736 26.9098C57.8724 26.9292 57.8785 26.9483 57.8908 26.9634C57.9031 26.9785 57.9205 26.9884 57.9398 26.9913C58.2281 27.034 58.2515 27.0844 58.2671 27.29C58.2671 27.387 58.2866 27.6003 58.2866 28.0659V28.6671C58.2866 29.1521 58.2866 29.3305 58.2671 29.443C58.2671 29.6486 58.2086 29.7029 57.9203 29.7456C57.9011 29.7485 57.8836 29.7584 57.8713 29.7735C57.8591 29.7886 57.8529 29.8077 57.8541 29.827C57.8541 29.8581 57.8541 29.893 57.9087 29.893H59.0502C59.0891 29.893 59.1047 29.8581 59.1047 29.827C59.1059 29.8077 59.0997 29.7886 59.0875 29.7735C59.0752 29.7584 59.0577 29.7485 59.0385 29.7456C58.7658 29.7029 58.7541 29.6525 58.7268 29.443C58.7023 29.1851 58.6945 28.926 58.7034 28.6671V28.4266H60.3864V28.6865C60.393 28.9454 60.3852 29.2044 60.3631 29.4624C60.3631 29.668 60.3085 29.7223 60.0163 29.765C59.9971 29.7678 59.9796 29.7778 59.9673 29.7929C59.9551 29.808 59.9489 29.8271 59.9501 29.8464C59.949 29.8623 59.954 29.878 59.9642 29.8902C59.9743 29.9025 59.9888 29.9104 60.0046 29.9124H61.15C61.1659 29.9104 61.1804 29.9025 61.1905 29.8902C61.2007 29.878 61.2057 29.8623 61.2046 29.8464C61.2058 29.8271 61.1996 29.808 61.1874 29.7929C61.1751 29.7778 61.1576 29.7678 61.1384 29.765C60.8656 29.7223 60.854 29.6719 60.8228 29.4624C60.8228 29.3654 60.8033 29.1831 60.8033 28.6865L60.7916 28.0736ZM63.4525 27.0223C64.1577 27.0223 64.5473 27.6314 64.5473 28.4034C64.5473 29.1753 64.1577 29.7068 63.4642 29.7068C62.7707 29.7068 62.3928 29.0861 62.3928 28.3374C62.3928 27.5887 62.7552 27.0223 63.4525 27.0223ZM61.8942 28.3723C61.9018 28.6775 61.9997 28.9736 62.1755 29.2236C62.3513 29.4736 62.5973 29.6664 62.8827 29.778C63.168 29.8895 63.48 29.9147 63.7797 29.8505C64.0794 29.7864 64.3534 29.6356 64.5675 29.4171C64.7815 29.1986 64.9261 28.9222 64.9832 28.6223C65.0402 28.3224 65.0072 28.0124 64.8882 27.7311C64.7691 27.4498 64.5695 27.2097 64.3141 27.0409C64.0588 26.872 63.7591 26.7819 63.4525 26.7818C63.2436 26.7785 63.0363 26.8176 62.8431 26.8969C62.6499 26.9761 62.475 27.0938 62.3292 27.2427C62.1833 27.3916 62.0694 27.5686 61.9946 27.7628C61.9198 27.9571 61.8857 28.1645 61.8942 28.3723ZM66.5692 28.0736C66.5641 27.8148 66.5719 27.5558 66.5926 27.2978C66.6199 27.0883 66.6199 27.0417 66.8926 26.9991C66.9119 26.9962 66.9294 26.9862 66.9416 26.9711C66.9539 26.9561 66.96 26.937 66.9588 26.9176C66.9588 26.8866 66.9588 26.8516 66.9043 26.8516H65.794C65.7781 26.8536 65.7636 26.8615 65.7535 26.8738C65.7433 26.8861 65.7383 26.9017 65.7394 26.9176C65.7382 26.937 65.7444 26.9561 65.7566 26.9711C65.7689 26.9862 65.7864 26.9962 65.8056 26.9991C66.0978 27.0417 66.1173 27.0922 66.1329 27.2978C66.1329 27.3947 66.1524 27.6081 66.1524 28.0736V28.6749C66.1524 29.1598 66.1524 29.3383 66.1329 29.4508C66.1329 29.6564 66.0745 29.7107 65.7862 29.7533C65.7669 29.7562 65.7494 29.7662 65.7372 29.7813C65.7249 29.7963 65.7187 29.8154 65.7199 29.8348C65.7199 29.8658 65.7199 29.9008 65.7745 29.9008H66.9432C66.9822 29.9008 66.9978 29.8658 66.9978 29.8348C66.999 29.8154 66.9928 29.7963 66.9806 29.7813C66.9683 29.7662 66.9508 29.7562 66.9316 29.7533C66.6588 29.7107 66.6043 29.6602 66.577 29.4508C66.5549 29.1928 66.5471 28.9338 66.5537 28.6749L66.5692 28.0736ZM66.655 28.3568L67.7497 29.7805C67.8233 29.8578 67.9144 29.9165 68.0153 29.9516C68.1163 29.9867 68.2243 29.9972 68.3302 29.9822C68.4665 29.9822 68.5834 29.9822 68.5834 29.9163C68.5834 29.8503 68.5834 29.8697 68.486 29.8426C68.3068 29.7766 68.2406 29.6719 68.0419 29.4236L67.0835 28.221L67.8977 27.3366C68.0403 27.171 68.2286 27.0509 68.4393 26.9913C68.4568 26.987 68.4724 26.9771 68.4837 26.9631C68.495 26.949 68.5013 26.9317 68.5016 26.9137C68.5011 26.9037 68.4986 26.8938 68.4942 26.8848C68.4897 26.8758 68.4835 26.8678 68.4758 26.8612C68.4682 26.8547 68.4593 26.8498 68.4496 26.8468C68.44 26.8438 68.4298 26.8428 68.4198 26.8439H67.4731C67.4639 26.8427 67.4546 26.8436 67.4459 26.8464C67.4371 26.8493 67.4291 26.854 67.4223 26.8603C67.4156 26.8666 67.4104 26.8743 67.4071 26.8829C67.4037 26.8915 67.4023 26.9007 67.403 26.9098C67.402 26.9275 67.4067 26.9449 67.4166 26.9596C67.4264 26.9743 67.4408 26.9854 67.4575 26.9913C67.6328 27.0262 67.7263 27.0534 67.7263 27.1116C67.7221 27.1459 67.7055 27.1776 67.6796 27.2008L66.655 28.3568ZM70.4651 27.0223C71.1664 27.0223 71.5599 27.6314 71.5599 28.4034C71.5599 29.1753 71.1703 29.7068 70.4729 29.7068C69.7756 29.7068 69.4055 29.0861 69.4055 28.3374C69.4055 27.5887 69.7678 27.0223 70.4651 27.0223ZM68.9068 28.3723C68.9144 28.6775 69.0123 28.9736 69.1881 29.2236C69.364 29.4736 69.6099 29.6664 69.8953 29.778C70.1806 29.8895 70.4927 29.9147 70.7923 29.8505C71.092 29.7864 71.366 29.6356 71.5801 29.4171C71.7942 29.1986 71.9388 28.9222 71.9958 28.6223C72.0528 28.3224 72.0198 28.0124 71.9008 27.7311C71.7818 27.4498 71.5821 27.2097 71.3267 27.0409C71.0714 26.872 70.7717 26.7819 70.4651 26.7818C70.2563 26.7785 70.0489 26.8176 69.8557 26.8969C69.6626 26.9761 69.4877 27.0938 69.3418 27.2427C69.1959 27.3916 69.0821 27.5686 69.0073 27.7628C68.9325 27.9571 68.8983 28.1645 68.9068 28.3723ZM75.6818 28.0736C75.6818 27.6003 75.6818 27.387 75.7012 27.2978C75.7324 27.0883 75.7324 27.0417 76.0012 26.9991C76.0205 26.9962 76.038 26.9862 76.0502 26.9711C76.0625 26.9561 76.0686 26.937 76.0675 26.9176C76.0675 26.8866 76.0675 26.8516 76.0168 26.8516H74.9026C74.8675 26.8516 74.8519 26.8866 74.8519 26.9176C74.8507 26.937 74.8569 26.9561 74.8691 26.9711C74.8814 26.9862 74.8989 26.9962 74.9182 26.9991C75.2065 27.0417 75.2259 27.0922 75.2415 27.2978C75.262 27.5558 75.2698 27.8148 75.2649 28.0736V28.1784H73.5819V28.0659C73.5746 27.807 73.5824 27.548 73.6052 27.29C73.6325 27.0805 73.6325 27.034 73.9052 26.9913C73.9245 26.9884 73.942 26.9785 73.9542 26.9634C73.9665 26.9483 73.9726 26.9292 73.9715 26.9098C73.9715 26.8788 73.9715 26.8439 73.9169 26.8439H72.8066C72.7676 26.8439 72.752 26.8788 72.752 26.9098C72.7508 26.9292 72.757 26.9483 72.7692 26.9634C72.7815 26.9785 72.799 26.9884 72.8183 26.9913C73.1066 27.034 73.1299 27.0844 73.1455 27.29C73.1455 27.387 73.165 27.6003 73.165 28.0659V28.6671C73.165 29.1521 73.165 29.3305 73.1455 29.443C73.1455 29.6486 73.0871 29.7029 72.7988 29.7456C72.7795 29.7485 72.762 29.7584 72.7498 29.7735C72.7375 29.7886 72.7314 29.8077 72.7326 29.827C72.7326 29.8581 72.7326 29.893 72.7871 29.893H73.9286C73.9676 29.893 73.9831 29.8581 73.9831 29.827C73.9843 29.8077 73.9782 29.7886 73.9659 29.7735C73.9537 29.7584 73.9362 29.7485 73.9169 29.7456C73.6442 29.7029 73.6325 29.6525 73.6052 29.443C73.5807 29.1851 73.5729 28.926 73.5819 28.6671V28.4266H75.2649V28.6865C75.2715 28.9454 75.2637 29.2044 75.2415 29.4624C75.2415 29.668 75.187 29.7223 74.8948 29.765C74.8755 29.7678 74.858 29.7778 74.8458 29.7929C74.8335 29.808 74.8274 29.8271 74.8286 29.8464C74.8274 29.8623 74.8325 29.878 74.8426 29.8902C74.8528 29.9025 74.8673 29.9104 74.8831 29.9124H76.0285C76.0443 29.9104 76.0588 29.9025 76.069 29.8902C76.0791 29.878 76.0842 29.8623 76.083 29.8464C76.0842 29.8271 76.0781 29.808 76.0658 29.7929C76.0536 29.7778 76.0361 29.7678 76.0168 29.765C75.7441 29.7223 75.7324 29.6719 75.7012 29.4624C75.7012 29.3654 75.6818 29.1831 75.6818 28.6865V28.0736ZM78.3427 27.0223C79.0478 27.0223 79.4374 27.6314 79.4374 28.4034C79.4374 29.1753 79.0478 29.7068 78.3543 29.7068C77.6609 29.7068 77.283 29.0861 77.283 28.3374C77.283 27.5887 77.6453 27.0223 78.3427 27.0223ZM76.7843 28.3723C76.792 28.6775 76.8898 28.9736 77.0657 29.2236C77.2415 29.4736 77.4875 29.6664 77.7728 29.778C78.0581 29.8895 78.3702 29.9147 78.6699 29.8505C78.9695 29.7864 79.2436 29.6356 79.4576 29.4171C79.6717 29.1986 79.8163 28.9222 79.8733 28.6223C79.9304 28.3224 79.8973 28.0124 79.7783 27.7311C79.6593 27.4498 79.4596 27.2097 79.2042 27.0409C78.9489 26.872 78.6492 26.7819 78.3427 26.7818C78.1338 26.7785 77.9264 26.8176 77.7332 26.8969C77.5401 26.9761 77.3652 27.0938 77.2193 27.2427C77.0734 27.3916 76.9596 27.5686 76.8848 27.7628C76.81 27.9571 76.7758 28.1645 76.7843 28.3723ZM81.4594 28.0736C81.4543 27.8148 81.4621 27.5558 81.4827 27.2978C81.51 27.0883 81.51 27.0417 81.7827 26.9991C81.802 26.9962 81.8195 26.9862 81.8317 26.9711C81.844 26.9561 81.8502 26.937 81.849 26.9176C81.849 26.8866 81.849 26.8516 81.7944 26.8516H80.7153C80.6994 26.8536 80.6849 26.8615 80.6748 26.8738C80.6646 26.8861 80.6596 26.9017 80.6607 26.9176C80.6595 26.937 80.6657 26.9561 80.6779 26.9711C80.6902 26.9862 80.7077 26.9962 80.7269 26.9991C81.0191 27.0417 81.0386 27.0922 81.0542 27.2978C81.0542 27.3947 81.0737 27.6081 81.0737 28.0736V28.6749C81.0737 29.1598 81.0737 29.3383 81.0542 29.4508C81.0542 29.6564 80.9958 29.7107 80.7075 29.7533C80.6882 29.7562 80.6707 29.7662 80.6584 29.7813C80.6462 29.7963 80.64 29.8154 80.6412 29.8348C80.6412 29.8658 80.6412 29.9008 80.6958 29.9008H81.8645C81.9035 29.9008 81.9191 29.8658 81.9191 29.8348C81.9203 29.8154 81.9141 29.7963 81.9019 29.7813C81.8896 29.7662 81.8721 29.7562 81.8529 29.7533C81.5801 29.7107 81.5256 29.6602 81.4983 29.4508C81.4762 29.1928 81.4684 28.9338 81.475 28.6749L81.4594 28.0736ZM81.5451 28.3568L82.6398 29.7805C82.7134 29.8578 82.8045 29.9165 82.9055 29.9516C83.0065 29.9867 83.1144 29.9972 83.2203 29.9822C83.3567 29.9822 83.4736 29.9822 83.4736 29.9163C83.4736 29.8503 83.4736 29.8697 83.3762 29.8426C83.1969 29.7766 83.1307 29.6719 82.932 29.4236L81.9736 28.221L82.7879 27.3366C82.9304 27.171 83.1188 27.0509 83.3294 26.9913C83.3469 26.987 83.3626 26.9771 83.3738 26.9631C83.3851 26.949 83.3914 26.9317 83.3917 26.9137C83.3913 26.9037 83.3887 26.8938 83.3843 26.8848C83.3799 26.8758 83.3736 26.8678 83.366 26.8612C83.3583 26.8547 83.3494 26.8498 83.3398 26.8468C83.3301 26.8438 83.32 26.8428 83.3099 26.8439H82.3632C82.3541 26.8427 82.3448 26.8436 82.336 26.8464C82.3272 26.8493 82.3192 26.854 82.3125 26.8603C82.3058 26.8666 82.3005 26.8743 82.2972 26.8829C82.2938 26.8915 82.2924 26.9007 82.2931 26.9098C82.2921 26.9275 82.2969 26.9449 82.3067 26.9596C82.3165 26.9743 82.3309 26.9854 82.3476 26.9913C82.523 27.0262 82.6165 27.0534 82.6165 27.1116C82.6122 27.1459 82.5956 27.1776 82.5697 27.2008L81.5451 28.3568ZM85.3553 27.0223C86.0565 27.0223 86.45 27.6314 86.45 28.4034C86.45 29.1753 86.0604 29.7068 85.3631 29.7068C84.6657 29.7068 84.2956 29.0861 84.2956 28.3374C84.2956 27.5887 84.6579 27.0223 85.3553 27.0223ZM83.7969 28.3723C83.8046 28.6775 83.9025 28.9736 84.0783 29.2236C84.2541 29.4736 84.5001 29.6664 84.7854 29.778C85.0708 29.8895 85.3828 29.9147 85.6825 29.8505C85.9822 29.7864 86.2562 29.6356 86.4702 29.4171C86.6843 29.1986 86.8289 28.9222 86.8859 28.6223C86.943 28.3224 86.9099 28.0124 86.7909 27.7311C86.6719 27.4498 86.4722 27.2097 86.2169 27.0409C85.9615 26.872 85.6618 26.7819 85.3553 26.7818C85.1464 26.7785 84.939 26.8176 84.7458 26.8969C84.5527 26.9761 84.3778 27.0938 84.2319 27.2427C84.086 27.3916 83.9722 27.5686 83.8974 27.7628C83.8226 27.9571 83.7884 28.1645 83.7969 28.3723Z" fill="white"/>
<path d="M26.6246 10.5509C26.6012 10.582 24.4702 12.9095 21.5833 12.9095H21.2171C19.0549 12.7582 17.0368 11.3152 15.2135 8.61906C12.015 3.87472 8.64111 1.16312 5.19324 0.554072C3.42009 0.198478 1.57749 0.51973 0.0311681 1.45406C0.014636 1.46641 0.0037059 1.48479 0.000783412 1.50516C-0.00213908 1.52553 0.00318508 1.54622 0.0155842 1.56268C0.0279833 1.57914 0.0464411 1.59003 0.0668986 1.59294C0.087356 1.59585 0.108137 1.59054 0.124669 1.5782C0.163628 1.55104 2.29079 0.220454 9.2216 8.79363C12.2098 12.4906 15.4005 14.3875 18.7042 14.4302H18.8172C23.465 14.4302 26.7142 10.6867 26.7454 10.6479C26.756 10.6322 26.7604 10.6132 26.7579 10.5944C26.7554 10.5756 26.7461 10.5584 26.7317 10.546C26.7173 10.5336 26.6989 10.5269 26.6799 10.5271C26.6609 10.5273 26.6426 10.5344 26.6285 10.5471" fill="white"/>
<path d="M44.3431 10.551C44.3198 10.582 42.1887 12.9096 39.3019 12.9096H38.9356C36.7734 12.7583 34.7553 11.3152 32.9321 8.61911C29.7335 3.89029 26.3636 1.17868 22.9118 0.569636C21.1387 0.214042 19.2961 0.535294 17.7497 1.46963C17.7415 1.47574 17.7347 1.4834 17.7294 1.49216C17.7242 1.50093 17.7208 1.51064 17.7193 1.52072C17.7179 1.53081 17.7185 1.54108 17.721 1.55095C17.7235 1.56082 17.728 1.57009 17.7341 1.57825C17.7403 1.5864 17.748 1.59326 17.7568 1.59845C17.7656 1.60365 17.7753 1.60706 17.7855 1.6085C17.7956 1.60994 17.8059 1.60938 17.8158 1.60685C17.8257 1.60432 17.8351 1.59988 17.8432 1.59376C17.8822 1.56661 20.0094 0.23602 26.9402 8.8092C29.9283 12.5061 33.1191 14.4031 36.4228 14.4458H36.5358C41.1836 14.4458 44.4328 10.7023 44.4639 10.6635C44.4745 10.6478 44.479 10.6287 44.4765 10.61C44.4739 10.5912 44.4646 10.574 44.4503 10.5616C44.4359 10.5492 44.4175 10.5425 44.3985 10.5427C44.3794 10.5428 44.3612 10.5499 44.347 10.5626" fill="white"/>
<path d="M57.7528 13.2975C57.746 13.2906 57.7378 13.2851 57.7287 13.2814C57.7197 13.2776 57.71 13.2757 57.7002 13.2757C57.6905 13.2757 57.6808 13.2776 57.6718 13.2814C57.6627 13.2851 57.6545 13.2906 57.6476 13.2975C57.6165 13.2975 55.4543 14.6281 48.5468 6.08209C45.5587 2.38903 42.3679 0.492074 39.0642 0.449402H38.9512C34.3034 0.449402 31.0581 4.19289 31.0231 4.23169C31.0125 4.2474 31.008 4.26644 31.0105 4.2852C31.013 4.30396 31.0223 4.32117 31.0367 4.33356C31.0511 4.34596 31.0695 4.3527 31.0885 4.35252C31.1075 4.35233 31.1258 4.34523 31.1399 4.33255C31.1633 4.30539 33.4775 1.77611 36.5474 2.00499C38.7097 2.1524 40.7277 3.59548 42.551 6.29157C45.7496 10.9894 49.1195 13.6855 52.5752 14.3061C53.0392 14.3905 53.5099 14.4334 53.9816 14.4342C55.3042 14.458 56.6057 14.101 57.7295 13.4061C57.7415 13.3921 57.7482 13.3742 57.7482 13.3557C57.7482 13.3372 57.7415 13.3193 57.7295 13.3053" fill="white"/>
<path d="M63.9629 7.64929C64.3291 7.61825 64.672 7.61825 65.0888 7.61825C66.0901 7.61825 67.1264 7.66868 67.3485 8.87126C67.3704 8.96763 67.4258 9.05318 67.5049 9.11281C67.5841 9.17244 67.6818 9.2023 67.7809 9.19711C67.8297 9.20195 67.8789 9.19594 67.9251 9.17952C67.9713 9.16309 68.0132 9.13667 68.0479 9.10216C68.0825 9.06764 68.1091 9.02589 68.1256 8.97992C68.142 8.93396 68.1481 8.88492 68.1432 8.83634C68.1432 8.3204 68.0419 8.06049 68.0419 7.18765C68.0419 6.12086 68.1432 5.60491 68.1432 5.22475C68.1492 5.17985 68.145 5.13418 68.1309 5.09111C68.1168 5.04805 68.0932 5.00868 68.0618 4.97591C68.0304 4.94315 67.992 4.91783 67.9495 4.90181C67.9069 4.88579 67.8613 4.87949 67.816 4.88337C67.7073 4.8767 67.6 4.90963 67.5139 4.97602C67.4279 5.04241 67.3691 5.13772 67.3485 5.24414C67.177 6.60189 66.0706 6.60189 65.0343 6.60189C64.6765 6.60372 64.3189 6.58689 63.9629 6.55146V2.19892C64.2441 2.08808 64.545 2.03529 64.8473 2.04375H66.1758C67.816 2.04375 68.5562 2.69934 68.938 4.02217C68.9606 4.10882 69.0108 4.18586 69.081 4.24179C69.1512 4.29772 69.2377 4.32954 69.3276 4.33251C69.3642 4.33422 69.4007 4.32823 69.4349 4.31493C69.469 4.30164 69.4999 4.28134 69.5256 4.25536C69.5514 4.22938 69.5713 4.1983 69.5842 4.16414C69.597 4.12998 69.6025 4.0935 69.6003 4.05709V1.3416C69.6003 1.05066 69.3782 0.953674 69.051 0.953674H60.0086C59.8528 0.953674 59.7826 1.08945 59.7826 1.24462C59.7789 1.33068 59.8041 1.41552 59.8542 1.48576C59.9043 1.556 59.9764 1.60764 60.0592 1.63255C61.0098 1.76832 61.2514 1.9584 61.3215 2.83512C61.3566 3.22304 61.4072 4.19286 61.4072 6.2062V8.63074C61.4072 10.6441 61.3566 11.4316 61.3215 11.8467C61.2514 12.6885 60.9319 12.8591 59.9735 13.0104C59.8906 13.0256 59.8164 13.0709 59.7652 13.1376C59.7141 13.2043 59.6897 13.2876 59.6969 13.3712C59.6969 13.5419 59.7826 13.6971 59.9579 13.6971H66.1563C66.3277 13.6971 66.4134 13.5419 66.4134 13.3712C66.424 13.2899 66.4034 13.2076 66.3558 13.1407C66.3081 13.0738 66.2369 13.0273 66.1563 13.0104C64.8083 12.7854 64.1694 12.6225 64.0681 11.8932C63.977 10.8121 63.947 9.7268 63.9785 8.64238L63.9629 7.64929ZM82.5814 5.32173L83.0801 11.3734C83.1024 11.5795 83.1141 11.7867 83.1152 11.9941C83.1152 12.7156 82.8386 12.8863 81.9464 13.026C81.8635 13.0411 81.7892 13.0864 81.7381 13.1531C81.687 13.2198 81.6626 13.3031 81.6698 13.3867C81.6698 13.5574 81.7555 13.7126 81.9308 13.7126H87.0734C87.2487 13.7126 87.3344 13.5574 87.3344 13.3867C87.3398 13.3058 87.3167 13.2254 87.2691 13.1596C87.2214 13.0938 87.1522 13.0465 87.0734 13.026C86.1929 12.8708 85.9046 12.638 85.815 11.5984L84.9501 3.42865C84.9501 3.22305 84.8995 2.94762 84.8995 2.74202C84.8956 2.60176 84.9208 2.46221 84.9735 2.33209C85.0262 2.20196 85.1053 2.08407 85.2059 1.98577C85.3064 1.88747 85.4263 1.81088 85.5579 1.76078C85.6895 1.71068 85.8301 1.68816 85.9709 1.69461C86.0229 1.69804 86.0751 1.69036 86.1239 1.67208C86.1728 1.65379 86.2171 1.62534 86.254 1.58861C86.2909 1.55188 86.3195 1.50772 86.3378 1.4591C86.3562 1.41048 86.3639 1.35852 86.3605 1.30669C86.3662 1.22551 86.3409 1.14518 86.2896 1.08184C86.2382 1.01851 86.1647 0.976875 86.0839 0.965312H83.2866C83.1915 0.953063 83.0949 0.971269 83.0108 1.0173C82.9268 1.06333 82.8596 1.13479 82.8191 1.22134L78.9505 10.3531L74.3416 1.22134C74.3105 1.1454 74.2561 1.08121 74.1861 1.03799C74.1161 0.994782 74.0342 0.974769 73.952 0.980829H71.1041C70.8782 0.980829 70.7924 1.18643 70.7924 1.36876C70.7917 1.41868 70.8015 1.4682 70.8212 1.51412C70.8409 1.56004 70.87 1.60133 70.9067 1.63533C70.9434 1.66933 70.9869 1.69529 71.0343 1.71151C71.0818 1.72774 71.1321 1.73387 71.182 1.72953C71.336 1.72255 71.4896 1.74812 71.6329 1.80456C71.7762 1.86101 71.9059 1.94704 72.0134 2.05699C72.1208 2.16694 72.2037 2.29832 72.2565 2.44247C72.3093 2.58662 72.3308 2.74027 72.3196 2.89331C72.3196 2.94374 72.3196 2.99417 72.3196 3.19977L71.5093 11.7342C71.4197 12.5954 71.1197 12.8979 70.1418 13.026C70.0593 13.0419 69.9856 13.0874 69.9346 13.1539C69.8836 13.2204 69.8589 13.3033 69.8652 13.3867C69.8652 13.5574 69.9548 13.7126 70.1262 13.7126H74.3728C74.5481 13.7126 74.6338 13.5574 74.6338 13.3867C74.6338 13.216 74.5481 13.0415 74.3728 13.026C73.2858 12.9561 72.9391 12.7156 72.9391 12.1298C72.9391 12.0639 72.9586 11.804 72.9586 11.7419L73.3482 5.31397L77.5986 13.7203C77.6505 13.8438 77.7367 13.9499 77.8471 14.0262C77.9576 14.1025 78.0876 14.1458 78.2219 14.1509C78.444 14.1509 78.6855 14.0113 78.8609 13.635L82.5814 5.32173ZM95.4379 0.97307H92.9173C92.881 0.969891 92.8445 0.974074 92.8099 0.985366C92.7753 0.996659 92.7434 1.01482 92.7161 1.03876C92.6888 1.0627 92.6666 1.09192 92.651 1.12464C92.6353 1.15735 92.6265 1.19289 92.6251 1.2291C92.6315 1.33738 92.6607 1.4431 92.7108 1.53944L93.2445 2.70322L90.1706 10.8186C89.4304 12.7583 88.772 12.8824 88.0123 13.0221C87.9371 13.0361 87.8695 13.0769 87.8222 13.1368C87.7749 13.1968 87.7511 13.2718 87.7552 13.3479C87.7545 13.3979 87.7642 13.4474 87.7839 13.4933C87.8036 13.5392 87.8328 13.5805 87.8695 13.6145C87.9062 13.6485 87.9497 13.6745 87.9971 13.6907C88.0445 13.7069 88.0948 13.713 88.1448 13.7087H91.9628C92.0077 13.7132 92.0532 13.708 92.096 13.6935C92.1388 13.679 92.1779 13.6555 92.2108 13.6246C92.2437 13.5937 92.2695 13.5561 92.2865 13.5144C92.3036 13.4727 92.3114 13.4278 92.3095 13.3828C92.3157 13.3017 92.2928 13.221 92.2451 13.155C92.1973 13.089 92.1277 13.0419 92.0485 13.0221C91.3589 12.9367 91.0122 12.9367 91.0122 12.607C91.0163 12.4951 91.0401 12.3849 91.0823 12.2811L91.9121 9.8915H96.182L96.7547 11.3191C96.9177 11.6437 97.0281 11.992 97.082 12.351C97.082 12.7816 96.8248 12.9716 96.1158 13.0221C96.0345 13.0381 95.9623 13.0843 95.9139 13.1512C95.8654 13.2182 95.8443 13.301 95.8548 13.3828C95.8548 13.5535 95.9405 13.7087 96.0807 13.7087H101.383C101.554 13.7087 101.64 13.5535 101.64 13.3828C101.647 13.2992 101.623 13.2159 101.572 13.1492C101.521 13.0825 101.446 13.0372 101.364 13.0221C100.604 12.9173 100.171 12.8475 99.104 10.132L95.4379 0.97307ZM93.9185 4.11916L95.7496 8.82858H92.2783L93.9185 4.11916Z" fill="white"/>
</g>
<defs>
<clipPath id="clip0_1965_5710">
<rect width="101.641" height="29.576" fill="white" transform="translate(0 0.412842)"/>
</clipPath>
</defs>
</svg>
